<svg width="151" height="59" viewBox="0 0 151 59" fill="none" xmlns="http://www.w3.org/2000/svg">
<rect x="0.847656" width="150" height="58.4898" rx="4" fill="#111825"/>
<g clip-path="url(#clip0_4934_7668)">
<path d="M25.9129 28.7297L15.5665 18.3545L28.7305 25.9121L25.9129 28.7297ZM12.8653 17.7449C12.2557 18.0641 11.8477 18.6449 11.8477 19.4009V40.0889C11.8477 40.8449 12.2557 41.4257 12.8653 41.7449L24.8977 29.7425L12.8653 17.7449ZM32.8009 28.3217L30.0397 26.7233L26.9593 29.7473L30.0397 32.7713L32.8573 31.1729C33.7009 30.5021 33.7009 28.9925 32.8009 28.3217ZM15.5665 41.1401L28.7305 33.5825L25.9129 30.7649L15.5665 41.1401Z" fill="white"/>
</g>
<path d="M44.0817 13.333C44.9177 13.333 45.64 13.4907 46.2487 13.806C46.8647 14.114 47.334 14.5577 47.6567 15.137C47.9867 15.7163 48.1517 16.3983 48.1517 17.183C48.1517 17.9677 47.9867 18.6497 47.6567 19.229C47.334 19.801 46.8647 20.241 46.2487 20.549C45.64 20.8497 44.9177 21 44.0817 21H41.6947V13.333H44.0817ZM44.0817 20.175C45.0717 20.175 45.827 19.9147 46.3477 19.394C46.8683 18.866 47.1287 18.129 47.1287 17.183C47.1287 16.2297 46.8647 15.4853 46.3367 14.95C45.816 14.4147 45.0643 14.147 44.0817 14.147H42.6957V20.175H44.0817ZM52.101 21.099C51.5363 21.099 51.023 20.9707 50.561 20.714C50.1063 20.4573 49.747 20.0943 49.483 19.625C49.2263 19.1483 49.098 18.5983 49.098 17.975C49.098 17.359 49.23 16.8163 49.494 16.347C49.7653 15.8703 50.132 15.5073 50.594 15.258C51.056 15.0013 51.573 14.873 52.145 14.873C52.717 14.873 53.234 15.0013 53.696 15.258C54.158 15.5073 54.521 15.8667 54.785 16.336C55.0563 16.8053 55.192 17.3517 55.192 17.975C55.192 18.5983 55.0527 19.1483 54.774 19.625C54.5027 20.0943 54.1323 20.4573 53.663 20.714C53.1937 20.9707 52.673 21.099 52.101 21.099ZM52.101 20.219C52.4603 20.219 52.7977 20.1347 53.113 19.966C53.4283 19.7973 53.6813 19.5443 53.872 19.207C54.07 18.8697 54.169 18.459 54.169 17.975C54.169 17.491 54.0737 17.0803 53.883 16.743C53.6923 16.4057 53.443 16.1563 53.135 15.995C52.827 15.8263 52.4933 15.742 52.134 15.742C51.7673 15.742 51.43 15.8263 51.122 15.995C50.8213 16.1563 50.5793 16.4057 50.396 16.743C50.2127 17.0803 50.121 17.491 50.121 17.975C50.121 18.4663 50.209 18.8807 50.385 19.218C50.5683 19.5553 50.8103 19.8083 51.111 19.977C51.4117 20.1383 51.7417 20.219 52.101 20.219ZM64.5381 14.972L62.6571 21H61.6231L60.1711 16.215L58.7191 21H57.6851L55.7931 14.972H56.8161L58.2021 20.032L59.6981 14.972H60.7211L62.1841 20.043L63.5481 14.972H64.5381ZM68.4686 14.862C69.2019 14.862 69.7959 15.0857 70.2506 15.533C70.7052 15.973 70.9326 16.611 70.9326 17.447V21H69.9426V17.59C69.9426 16.9887 69.7922 16.5303 69.4916 16.215C69.1909 15.8923 68.7802 15.731 68.2596 15.731C67.7316 15.731 67.3099 15.896 66.9946 16.226C66.6866 16.556 66.5326 17.0363 66.5326 17.667V21H65.5316V14.972H66.5326V15.83C66.7306 15.522 66.9982 15.2837 67.3356 15.115C67.6802 14.9463 68.0579 14.862 68.4686 14.862ZM73.5687 12.86V21H72.5677V12.86H73.5687ZM77.9037 21.099C77.3391 21.099 76.8257 20.9707 76.3637 20.714C75.9091 20.4573 75.5497 20.0943 75.2857 19.625C75.0291 19.1483 74.9007 18.5983 74.9007 17.975C74.9007 17.359 75.0327 16.8163 75.2967 16.347C75.5681 15.8703 75.9347 15.5073 76.3967 15.258C76.8587 15.0013 77.3757 14.873 77.9477 14.873C78.5197 14.873 79.0367 15.0013 79.4987 15.258C79.9607 15.5073 80.3237 15.8667 80.5877 16.336C80.8591 16.8053 80.9947 17.3517 80.9947 17.975C80.9947 18.5983 80.8554 19.1483 80.5767 19.625C80.3054 20.0943 79.9351 20.4573 79.4657 20.714C78.9964 20.9707 78.4757 21.099 77.9037 21.099ZM77.9037 20.219C78.2631 20.219 78.6004 20.1347 78.9157 19.966C79.2311 19.7973 79.4841 19.5443 79.6747 19.207C79.8727 18.8697 79.9717 18.459 79.9717 17.975C79.9717 17.491 79.8764 17.0803 79.6857 16.743C79.4951 16.4057 79.2457 16.1563 78.9377 15.995C78.6297 15.8263 78.2961 15.742 77.9367 15.742C77.5701 15.742 77.2327 15.8263 76.9247 15.995C76.6241 16.1563 76.3821 16.4057 76.1987 16.743C76.0154 17.0803 75.9237 17.491 75.9237 17.975C75.9237 18.4663 76.0117 18.8807 76.1877 19.218C76.3711 19.5553 76.6131 19.8083 76.9137 19.977C77.2144 20.1383 77.5444 20.219 77.9037 20.219ZM81.9369 17.964C81.9369 17.348 82.0615 16.809 82.3109 16.347C82.5602 15.8777 82.9012 15.5147 83.3339 15.258C83.7739 15.0013 84.2615 14.873 84.7969 14.873C85.3249 14.873 85.7832 14.9867 86.1719 15.214C86.5605 15.4413 86.8502 15.7273 87.0409 16.072V14.972H88.0529V21H87.0409V19.878C86.8429 20.23 86.5459 20.5233 86.1499 20.758C85.7612 20.9853 85.3065 21.099 84.7859 21.099C84.2505 21.099 83.7665 20.967 83.3339 20.703C82.9012 20.439 82.5602 20.0687 82.3109 19.592C82.0615 19.1153 81.9369 18.5727 81.9369 17.964ZM87.0409 17.975C87.0409 17.5203 86.9492 17.1243 86.7659 16.787C86.5825 16.4497 86.3332 16.193 86.0179 16.017C85.7099 15.8337 85.3689 15.742 84.9949 15.742C84.6209 15.742 84.2799 15.83 83.9719 16.006C83.6639 16.182 83.4182 16.4387 83.2349 16.776C83.0515 17.1133 82.9599 17.5093 82.9599 17.964C82.9599 18.426 83.0515 18.8293 83.2349 19.174C83.4182 19.5113 83.6639 19.7717 83.9719 19.955C84.2799 20.131 84.6209 20.219 84.9949 20.219C85.3689 20.219 85.7099 20.131 86.0179 19.955C86.3332 19.7717 86.5825 19.5113 86.7659 19.174C86.9492 18.8293 87.0409 18.4297 87.0409 17.975ZM89.3705 17.964C89.3705 17.348 89.4951 16.809 89.7445 16.347C89.9938 15.8777 90.3348 15.5147 90.7675 15.258C91.2075 15.0013 91.6988 14.873 92.2415 14.873C92.7108 14.873 93.1471 14.983 93.5505 15.203C93.9538 15.4157 94.2618 15.698 94.4745 16.05V12.86H95.4865V21H94.4745V19.867C94.2765 20.2263 93.9831 20.5233 93.5945 20.758C93.2058 20.9853 92.7511 21.099 92.2305 21.099C91.6951 21.099 91.2075 20.967 90.7675 20.703C90.3348 20.439 89.9938 20.0687 89.7445 19.592C89.4951 19.1153 89.3705 18.5727 89.3705 17.964ZM94.4745 17.975C94.4745 17.5203 94.3828 17.1243 94.1995 16.787C94.0161 16.4497 93.7668 16.193 93.4515 16.017C93.1435 15.8337 92.8025 15.742 92.4285 15.742C92.0545 15.742 91.7135 15.83 91.4055 16.006C91.0975 16.182 90.8518 16.4387 90.6685 16.776C90.4851 17.1133 90.3935 17.5093 90.3935 17.964C90.3935 18.426 90.4851 18.8293 90.6685 19.174C90.8518 19.5113 91.0975 19.7717 91.4055 19.955C91.7135 20.131 92.0545 20.219 92.4285 20.219C92.8025 20.219 93.1435 20.131 93.4515 19.955C93.7668 19.7717 94.0161 19.5113 94.1995 19.174C94.3828 18.8293 94.4745 18.4297 94.4745 17.975ZM102.74 21.099C102.175 21.099 101.662 20.9707 101.2 20.714C100.745 20.4573 100.386 20.0943 100.122 19.625C99.865 19.1483 99.7367 18.5983 99.7367 17.975C99.7367 17.359 99.8687 16.8163 100.133 16.347C100.404 15.8703 100.771 15.5073 101.233 15.258C101.695 15.0013 102.212 14.873 102.784 14.873C103.356 14.873 103.873 15.0013 104.335 15.258C104.797 15.5073 105.16 15.8667 105.424 16.336C105.695 16.8053 105.831 17.3517 105.831 17.975C105.831 18.5983 105.691 19.1483 105.413 19.625C105.141 20.0943 104.771 20.4573 104.302 20.714C103.832 20.9707 103.312 21.099 102.74 21.099ZM102.74 20.219C103.099 20.219 103.436 20.1347 103.752 19.966C104.067 19.7973 104.32 19.5443 104.511 19.207C104.709 18.8697 104.808 18.459 104.808 17.975C104.808 17.491 104.712 17.0803 104.522 16.743C104.331 16.4057 104.082 16.1563 103.774 15.995C103.466 15.8263 103.132 15.742 102.773 15.742C102.406 15.742 102.069 15.8263 101.761 15.995C101.46 16.1563 101.218 16.4057 101.035 16.743C100.851 17.0803 100.76 17.491 100.76 17.975C100.76 18.4663 100.848 18.8807 101.024 19.218C101.207 19.5553 101.449 19.8083 101.75 19.977C102.05 20.1383 102.38 20.219 102.74 20.219ZM110.084 14.862C110.817 14.862 111.411 15.0857 111.866 15.533C112.32 15.973 112.548 16.611 112.548 17.447V21H111.558V17.59C111.558 16.9887 111.407 16.5303 111.107 16.215C110.806 15.8923 110.395 15.731 109.875 15.731C109.347 15.731 108.925 15.896 108.61 16.226C108.302 16.556 108.148 17.0363 108.148 17.667V21H107.147V14.972H108.148V15.83C108.346 15.522 108.613 15.2837 108.951 15.115C109.295 14.9463 109.673 14.862 110.084 14.862ZM118.337 15.797V19.35C118.337 19.6433 118.399 19.8523 118.524 19.977C118.648 20.0943 118.865 20.153 119.173 20.153H119.91V21H119.008C118.45 21 118.032 20.8717 117.754 20.615C117.475 20.3583 117.336 19.9367 117.336 19.35V15.797H116.555V14.972H117.336V13.454H118.337V14.972H119.91V15.797H118.337ZM124.114 14.862C124.569 14.862 124.98 14.961 125.346 15.159C125.713 15.3497 125.999 15.6393 126.204 16.028C126.417 16.4167 126.523 16.8897 126.523 17.447V21H125.533V17.59C125.533 16.9887 125.383 16.5303 125.082 16.215C124.782 15.8923 124.371 15.731 123.85 15.731C123.322 15.731 122.901 15.896 122.585 16.226C122.277 16.556 122.123 17.0363 122.123 17.667V21H121.122V12.86H122.123V15.83C122.321 15.522 122.593 15.2837 122.937 15.115C123.289 14.9463 123.682 14.862 124.114 14.862ZM133.659 17.755C133.659 17.9457 133.648 18.1473 133.626 18.36H128.808C128.844 18.954 129.046 19.4197 129.413 19.757C129.787 20.087 130.238 20.252 130.766 20.252C131.198 20.252 131.558 20.153 131.844 19.955C132.137 19.7497 132.342 19.4783 132.46 19.141H133.538C133.376 19.7203 133.054 20.1933 132.57 20.56C132.086 20.9193 131.484 21.099 130.766 21.099C130.194 21.099 129.68 20.9707 129.226 20.714C128.778 20.4573 128.426 20.0943 128.17 19.625C127.913 19.1483 127.785 18.5983 127.785 17.975C127.785 17.3517 127.909 16.8053 128.159 16.336C128.408 15.8667 128.756 15.5073 129.204 15.258C129.658 15.0013 130.179 14.873 130.766 14.873C131.338 14.873 131.844 14.9977 132.284 15.247C132.724 15.4963 133.061 15.841 133.296 16.281C133.538 16.7137 133.659 17.205 133.659 17.755ZM132.625 17.546C132.625 17.1647 132.54 16.8383 132.372 16.567C132.203 16.2883 131.972 16.0793 131.679 15.94C131.393 15.7933 131.074 15.72 130.722 15.72C130.216 15.72 129.783 15.8813 129.424 16.204C129.072 16.5267 128.87 16.974 128.819 17.546H132.625Z" fill="white"/>
<path d="M50.0957 34.08C49.8077 33.5253 49.4077 33.1093 48.8957 32.832C48.3837 32.544 47.7917 32.4 47.1197 32.4C46.3837 32.4 45.7277 32.5653 45.1517 32.896C44.5757 33.2267 44.1223 33.696 43.7917 34.304C43.4717 34.912 43.3117 35.616 43.3117 36.416C43.3117 37.216 43.4717 37.9253 43.7917 38.544C44.1223 39.152 44.5757 39.6213 45.1517 39.952C45.7277 40.2827 46.3837 40.448 47.1197 40.448C48.1117 40.448 48.917 40.1707 49.5357 39.616C50.1543 39.0613 50.533 38.3093 50.6717 37.36H46.4957V35.904H52.6237V37.328C52.5063 38.192 52.197 38.9867 51.6957 39.712C51.205 40.4373 50.5597 41.0187 49.7597 41.456C48.9703 41.8827 48.0903 42.096 47.1197 42.096C46.0743 42.096 45.1197 41.856 44.2557 41.376C43.3917 40.8853 42.7037 40.208 42.1917 39.344C41.6903 38.48 41.4397 37.504 41.4397 36.416C41.4397 35.328 41.6903 34.352 42.1917 33.488C42.7037 32.624 43.3917 31.952 44.2557 31.472C45.1303 30.9813 46.085 30.736 47.1197 30.736C48.3037 30.736 49.3543 31.0293 50.2717 31.616C51.1997 32.192 51.8717 33.0133 52.2877 34.08H50.0957ZM58.2467 42.144C57.4147 42.144 56.6627 41.9573 55.9907 41.584C55.3187 41.2 54.7907 40.6667 54.4067 39.984C54.0227 39.2907 53.8307 38.4907 53.8307 37.584C53.8307 36.688 54.028 35.8933 54.4227 35.2C54.8173 34.5067 55.356 33.9733 56.0387 33.6C56.7213 33.2267 57.484 33.04 58.3267 33.04C59.1693 33.04 59.932 33.2267 60.6147 33.6C61.2973 33.9733 61.836 34.5067 62.2307 35.2C62.6253 35.8933 62.8227 36.688 62.8227 37.584C62.8227 38.48 62.62 39.2747 62.2147 39.968C61.8093 40.6613 61.2547 41.2 60.5507 41.584C59.8573 41.9573 59.0893 42.144 58.2467 42.144ZM58.2467 40.56C58.716 40.56 59.1533 40.448 59.5587 40.224C59.9747 40 60.3107 39.664 60.5667 39.216C60.8227 38.768 60.9507 38.224 60.9507 37.584C60.9507 36.944 60.828 36.4053 60.5827 35.968C60.3373 35.52 60.012 35.184 59.6067 34.96C59.2013 34.736 58.764 34.624 58.2947 34.624C57.8253 34.624 57.388 34.736 56.9827 34.96C56.588 35.184 56.2733 35.52 56.0387 35.968C55.804 36.4053 55.6867 36.944 55.6867 37.584C55.6867 38.5333 55.9267 39.2693 56.4067 39.792C56.8973 40.304 57.5107 40.56 58.2467 40.56ZM68.4498 42.144C67.6178 42.144 66.8658 41.9573 66.1938 41.584C65.5218 41.2 64.9938 40.6667 64.6098 39.984C64.2258 39.2907 64.0338 38.4907 64.0338 37.584C64.0338 36.688 64.2311 35.8933 64.6258 35.2C65.0204 34.5067 65.5591 33.9733 66.2418 33.6C66.9244 33.2267 67.6871 33.04 68.5298 33.04C69.3724 33.04 70.1351 33.2267 70.8178 33.6C71.5004 33.9733 72.0391 34.5067 72.4338 35.2C72.8284 35.8933 73.0258 36.688 73.0258 37.584C73.0258 38.48 72.8231 39.2747 72.4178 39.968C72.0124 40.6613 71.4578 41.2 70.7538 41.584C70.0604 41.9573 69.2924 42.144 68.4498 42.144ZM68.4498 40.56C68.9191 40.56 69.3564 40.448 69.7618 40.224C70.1778 40 70.5138 39.664 70.7698 39.216C71.0258 38.768 71.1538 38.224 71.1538 37.584C71.1538 36.944 71.0311 36.4053 70.7858 35.968C70.5404 35.52 70.2151 35.184 69.8098 34.96C69.4044 34.736 68.9671 34.624 68.4978 34.624C68.0284 34.624 67.5911 34.736 67.1858 34.96C66.7911 35.184 66.4764 35.52 66.2418 35.968C66.0071 36.4053 65.8898 36.944 65.8898 37.584C65.8898 38.5333 66.1298 39.2693 66.6098 39.792C67.1004 40.304 67.7138 40.56 68.4498 40.56ZM78.3809 33.04C79.0636 33.04 79.6662 33.1787 80.1889 33.456C80.7222 33.7227 81.1382 34.0587 81.4369 34.464V33.184H83.2769V42.144C83.2769 42.9547 83.1062 43.6747 82.7649 44.304C82.4236 44.944 81.9276 45.4453 81.2769 45.808C80.6369 46.1707 79.8689 46.352 78.9729 46.352C77.7782 46.352 76.7862 46.0693 75.9969 45.504C75.2076 44.9493 74.7596 44.192 74.6529 43.232H76.4609C76.5996 43.6907 76.8929 44.0587 77.3409 44.336C77.7996 44.624 78.3436 44.768 78.9729 44.768C79.7089 44.768 80.3009 44.544 80.7489 44.096C81.2076 43.648 81.4369 42.9973 81.4369 42.144V40.672C81.1276 41.088 80.7062 41.44 80.1729 41.728C79.6502 42.0053 79.0529 42.144 78.3809 42.144C77.6129 42.144 76.9089 41.952 76.2689 41.568C75.6396 41.1733 75.1382 40.6293 74.7649 39.936C74.4022 39.232 74.2209 38.4373 74.2209 37.552C74.2209 36.6667 74.4022 35.8827 74.7649 35.2C75.1382 34.5173 75.6396 33.9893 76.2689 33.616C76.9089 33.232 77.6129 33.04 78.3809 33.04ZM81.4369 37.584C81.4369 36.976 81.3089 36.448 81.0529 36C80.8076 35.552 80.4822 35.2107 80.0769 34.976C79.6716 34.7413 79.2342 34.624 78.7649 34.624C78.2956 34.624 77.8582 34.7413 77.4529 34.976C77.0476 35.2 76.7169 35.536 76.4609 35.984C76.2156 36.4213 76.0929 36.944 76.0929 37.552C76.0929 38.16 76.2156 38.6933 76.4609 39.152C76.7169 39.6107 77.0476 39.9627 77.4529 40.208C77.8689 40.4427 78.3062 40.56 78.7649 40.56C79.2342 40.56 79.6716 40.4427 80.0769 40.208C80.4822 39.9733 80.8076 39.632 81.0529 39.184C81.3089 38.7253 81.4369 38.192 81.4369 37.584ZM87.4967 30.16V42H85.6727V30.16H87.4967ZM97.9714 37.376C97.9714 37.7067 97.9501 38.0053 97.9074 38.272H91.1714C91.2247 38.976 91.4861 39.5413 91.9554 39.968C92.4247 40.3947 93.0007 40.608 93.6834 40.608C94.6647 40.608 95.3581 40.1973 95.7634 39.376H97.7314C97.4647 40.1867 96.9794 40.8533 96.2754 41.376C95.5821 41.888 94.7181 42.144 93.6834 42.144C92.8407 42.144 92.0834 41.9573 91.4114 41.584C90.7501 41.2 90.2274 40.6667 89.8434 39.984C89.4701 39.2907 89.2834 38.4907 89.2834 37.584C89.2834 36.6773 89.4647 35.8827 89.8274 35.2C90.2007 34.5067 90.7181 33.9733 91.3794 33.6C92.0514 33.2267 92.8194 33.04 93.6834 33.04C94.5154 33.04 95.2567 33.2213 95.9074 33.584C96.5581 33.9467 97.0647 34.4587 97.4274 35.12C97.7901 35.7707 97.9714 36.5227 97.9714 37.376ZM96.0674 36.8C96.0567 36.128 95.8167 35.5893 95.3474 35.184C94.8781 34.7787 94.2967 34.576 93.6034 34.576C92.9741 34.576 92.4354 34.7787 91.9874 35.184C91.5394 35.5787 91.2727 36.1173 91.1874 36.8H96.0674ZM105.747 34.48C106.056 34.0747 106.477 33.7333 107.011 33.456C107.544 33.1787 108.147 33.04 108.819 33.04C109.587 33.04 110.285 33.232 110.915 33.616C111.555 33.9893 112.056 34.5173 112.419 35.2C112.781 35.8827 112.963 36.6667 112.963 37.552C112.963 38.4373 112.781 39.232 112.419 39.936C112.056 40.6293 111.555 41.1733 110.915 41.568C110.285 41.952 109.587 42.144 108.819 42.144C108.147 42.144 107.549 42.0107 107.027 41.744C106.504 41.4667 106.077 41.1253 105.747 40.72V46.192H103.923V33.184H105.747V34.48ZM111.107 37.552C111.107 36.944 110.979 36.4213 110.723 35.984C110.477 35.536 110.147 35.2 109.731 34.976C109.325 34.7413 108.888 34.624 108.419 34.624C107.96 34.624 107.523 34.7413 107.107 34.976C106.701 35.2107 106.371 35.552 106.115 36C105.869 36.448 105.747 36.976 105.747 37.584C105.747 38.192 105.869 38.7253 106.115 39.184C106.371 39.632 106.701 39.9733 107.107 40.208C107.523 40.4427 107.96 40.56 108.419 40.56C108.888 40.56 109.325 40.4427 109.731 40.208C110.147 39.9627 110.477 39.6107 110.723 39.152C110.979 38.6933 111.107 38.16 111.107 37.552ZM116.59 30.16V42H114.766V30.16H116.59ZM118.377 37.552C118.377 36.6667 118.558 35.8827 118.921 35.2C119.294 34.5173 119.796 33.9893 120.425 33.616C121.065 33.232 121.769 33.04 122.537 33.04C123.23 33.04 123.833 33.1787 124.345 33.456C124.868 33.7227 125.284 34.0587 125.593 34.464V33.184H127.433V42H125.593V40.688C125.284 41.104 124.862 41.4507 124.329 41.728C123.796 42.0053 123.188 42.144 122.505 42.144C121.748 42.144 121.054 41.952 120.425 41.568C119.796 41.1733 119.294 40.6293 118.921 39.936C118.558 39.232 118.377 38.4373 118.377 37.552ZM125.593 37.584C125.593 36.976 125.465 36.448 125.209 36C124.964 35.552 124.638 35.2107 124.233 34.976C123.828 34.7413 123.39 34.624 122.921 34.624C122.452 34.624 122.014 34.7413 121.609 34.976C121.204 35.2 120.873 35.536 120.617 35.984C120.372 36.4213 120.249 36.944 120.249 37.552C120.249 38.16 120.372 38.6933 120.617 39.152C120.873 39.6107 121.204 39.9627 121.609 40.208C122.025 40.4427 122.462 40.56 122.921 40.56C123.39 40.56 123.828 40.4427 124.233 40.208C124.638 39.9733 124.964 39.632 125.209 39.184C125.465 38.7253 125.593 38.192 125.593 37.584ZM137.765 33.184L132.357 46.144H130.469L132.261 41.856L128.789 33.184H130.821L133.301 39.904L135.877 33.184H137.765Z" fill="white"/>
<defs>
<clipPath id="clip0_4934_7668">
<rect width="24" height="24" fill="white" transform="translate(10.8477 17.2449)"/>
</clipPath>
</defs>
</svg>
