<svg width="140" height="32" viewBox="0 0 140 32" fill="none" xmlns="http://www.w3.org/2000/svg">
<path d="M104.068 4.33524C104.452 4.34241 104.613 4.20202 104.68 3.83209C104.848 2.92621 105.023 2.02033 105.247 1.12778C105.369 0.637946 105.207 0.537521 104.755 0.540595C102.588 0.555966 100.421 0.544694 98.2534 0.548793C97.3267 0.550842 96.913 0.891059 96.7235 1.79284C96.3948 3.36173 96.0456 4.92857 95.7558 6.50463C95.6544 7.05697 95.424 7.21068 94.8762 7.20863C89.6547 7.18814 84.4331 7.19531 79.2116 7.19736C77.5414 7.19736 76.6229 8.33893 76.9895 9.96213C77.9592 14.2548 78.9331 18.5465 79.909 22.8381C80.25 24.3363 81.1757 24.9604 82.7117 24.7595C87.0741 24.1897 91.4375 23.6261 95.8009 23.0594C96.4532 22.9744 97.1045 22.8852 97.7568 22.7981C97.7506 22.7561 97.7435 22.7131 97.7373 22.6711C96.2648 22.4999 94.7932 22.3257 93.3207 22.1566C90.2035 21.798 87.0874 21.4321 83.9682 21.0919C83.5002 21.0407 83.3088 20.8542 83.2094 20.3941C82.5786 17.494 81.9161 14.6001 81.2638 11.7042C81.103 10.99 81.1071 10.9818 81.8301 10.9818C85.9251 10.9807 90.0213 10.9818 94.1163 10.9818C94.2187 10.9818 94.3211 10.9869 94.4236 10.9859C94.6929 10.9828 94.7912 11.1017 94.7297 11.3712C94.6458 11.737 94.5833 12.1069 94.5065 12.4748C93.9617 15.0971 93.4221 17.7195 92.8629 20.3387C92.7728 20.7599 92.8701 20.9126 93.3135 20.9464C94.1972 21.014 95.081 21.1104 95.9545 21.2549C96.4317 21.3338 96.5668 21.1678 96.657 20.7302C97.7312 15.4825 98.831 10.2398 99.9021 4.9921C100.008 4.47768 100.203 4.2922 100.741 4.31372C101.848 4.35778 102.959 4.31269 104.068 4.33421V4.33524Z" fill="white"/>
<path d="M15.513 4.1886C12.528 4.20909 9.54296 4.18655 6.55894 4.23369C4.58359 4.26443 3.09158 5.46338 2.65432 7.38069C2.20273 9.35948 1.94467 11.3762 1.85251 13.4052C1.78492 14.8911 2.56523 15.8513 4.00911 16.2212C4.49041 16.3442 4.97887 16.4067 5.47552 16.4077C6.77194 16.4108 8.06836 16.4046 9.36478 16.4169C10.2721 16.4251 10.6612 16.8258 10.5977 17.7153C10.5393 18.531 10.4103 19.3405 10.2117 20.1357C10.0642 20.727 9.68837 21.0887 9.09034 21.182C8.75548 21.2343 8.41141 21.2404 8.07143 21.2414C5.70081 21.2466 3.32916 21.2486 0.958534 21.2394C0.617533 21.2384 0.422968 21.3121 0.382007 21.7026C0.287796 22.6166 0.177201 23.5317 0.0215487 24.4366C-0.0501333 24.8516 0.070702 24.9305 0.452664 24.9264C2.05629 24.91 3.65992 24.9193 5.26252 24.9193V24.9121C6.84874 24.9121 8.43599 24.9305 10.0212 24.908C12.2751 24.8762 13.7394 23.668 14.2238 21.473C14.316 21.058 14.3938 20.6379 14.4593 20.2177C14.7102 18.6007 15.0123 16.9857 14.9334 15.3409C14.873 14.0682 14.1152 13.2248 12.8721 12.9399C12.2884 12.8057 11.6975 12.7411 11.0974 12.7422C9.88601 12.7432 8.67459 12.7514 7.46418 12.7278C6.5231 12.7094 6.1268 12.2441 6.23023 11.3188C6.2927 10.7603 6.36643 10.2018 6.45757 9.64641C6.68695 8.24865 6.9962 7.97094 8.41653 7.86027C8.62031 7.8449 8.82512 7.84387 9.02992 7.84285C11.0083 7.84183 12.9878 7.83465 14.9662 7.849C15.3379 7.85207 15.5049 7.76804 15.5438 7.35609C15.6298 6.45739 15.7691 5.56381 15.9145 4.67228C15.9728 4.31669 15.895 4.1845 15.5141 4.18655L15.513 4.1886Z" fill="#236924"/>
<path d="M29.5463 7.30169C28.1158 6.95328 26.6688 6.98709 25.2362 7.29349C24.2972 7.49434 23.6203 8.06513 23.1953 8.92899C23.182 9.00277 23.1195 9.08475 23.0704 9.04274C22.9567 8.94846 23.0458 8.83471 23.0939 8.73224C23.3807 6.65712 23.6602 4.57996 23.9623 2.50689C24.0104 2.17897 23.9336 2.08674 23.61 2.09187C22.5522 2.10621 21.4944 2.11236 20.4376 2.08879C20.07 2.0806 19.9491 2.19229 19.899 2.56223C19.4678 5.75329 19.0101 8.94129 18.5646 12.1303C17.9871 16.2641 17.4167 20.4 16.8299 24.5328C16.7859 24.8403 16.8525 24.9222 17.1515 24.9192C18.2605 24.9079 19.3695 24.9099 20.4775 24.9181C20.7192 24.9202 20.8329 24.8638 20.8687 24.5882C21.0889 22.9158 21.3357 21.2465 21.5681 19.5761C21.9132 17.0952 22.246 14.6122 22.6003 12.1324C22.7335 11.2009 23.2035 10.7653 24.1446 10.6393C24.7723 10.5542 25.4072 10.5676 26.0349 10.6137C27.0528 10.6885 27.4174 11.1547 27.2914 12.1754C27.187 13.0208 27.0559 13.8621 26.9392 14.7055C26.4855 17.9796 26.0349 21.2547 25.5772 24.5287C25.5373 24.8167 25.6182 24.9263 25.9213 24.9212C26.7231 24.9058 27.5249 24.9161 28.3267 24.9161C29.6129 24.9161 29.5955 24.914 29.7665 23.6577C30.1556 20.8048 30.5837 17.957 30.9554 15.1021C31.1848 13.3467 31.5534 11.6046 31.5207 9.82052C31.4961 8.51089 30.8223 7.61424 29.5473 7.30374L29.5463 7.30169Z" fill="#236924"/>
<path d="M113.953 7.20842C111.61 6.96145 109.252 7.08647 106.901 7.16128C106.63 7.16948 106.355 7.20022 106.089 7.25555C104.296 7.62651 103.433 8.86851 103.082 10.547C102.67 12.5176 102.439 14.519 102.175 16.5131C101.943 18.2696 101.587 20.0157 101.545 21.7926C101.502 23.6341 102.337 24.5871 104.152 24.8269C105.697 25.0319 107.252 24.8628 108.505 24.9191C110.133 24.9191 111.463 24.9079 112.793 24.9263C113.177 24.9314 113.351 24.7931 113.395 24.416C113.484 23.6546 113.6 22.8953 113.7 22.1349C113.793 21.4145 113.789 21.4145 113.078 21.4094C111.066 21.3971 109.053 21.4022 107.042 21.3633C106.044 21.3438 105.666 20.8714 105.768 19.8815C105.82 19.3732 105.929 18.869 105.959 18.3597C105.992 17.8074 106.214 17.6219 106.788 17.6352C108.493 17.6742 110.199 17.6629 111.904 17.6352C113.788 17.6035 115.048 16.6453 115.503 14.8202C115.908 13.1981 116.159 11.5411 116.197 9.86457C116.232 8.31719 115.484 7.37033 113.95 7.20944L113.953 7.20842ZM111.992 11.6999C111.978 12.2471 111.884 12.7841 111.763 13.3149C111.607 14.0015 111.218 14.3304 110.505 14.3581C109.927 14.3806 109.348 14.3622 108.769 14.3622V14.3653C108.173 14.3653 107.577 14.3571 106.982 14.3683C106.642 14.3745 106.522 14.2423 106.588 13.9041C106.724 13.2032 106.825 12.4941 106.974 11.7962C107.131 11.0584 107.546 10.7161 108.293 10.6823C109.21 10.6413 110.129 10.5993 111.049 10.6608C111.763 10.709 112.01 10.9744 111.993 11.6989L111.992 11.6999Z" fill="white"/>
<path d="M72.2042 7.20967C69.6369 6.98525 67.0554 6.98833 64.4892 7.23837C63.1784 7.36646 62.2363 8.15039 61.6946 9.37087C61.5072 9.79307 61.3812 10.2368 61.2911 10.6887C60.8938 12.6788 60.6695 14.6955 60.3889 16.704C60.1524 18.3917 59.8421 20.0733 59.7817 21.7795C59.7172 23.6026 60.5784 24.5894 62.3797 24.8261C63.9259 25.029 65.4814 24.8661 66.7471 24.9204C68.3979 24.9204 69.7629 24.9122 71.1279 24.9266C71.4423 24.9296 71.5887 24.8353 71.6256 24.5126C71.728 23.6149 71.8284 22.7162 71.9799 21.8267C72.0465 21.4393 71.9011 21.3983 71.5898 21.4004C70.3957 21.4096 69.2007 21.4127 68.0067 21.4004C67.0011 21.3912 65.9924 21.466 64.9889 21.344C64.2833 21.258 63.9567 20.8614 64.015 20.1594C64.0713 19.48 64.1922 18.8047 64.226 18.1253C64.2475 17.701 64.4359 17.6396 64.8015 17.6416C66.5925 17.6539 68.3846 17.6611 70.1766 17.6324C72.1192 17.6016 73.3706 16.5738 73.7761 14.7088C74.1171 13.1409 74.3546 11.5567 74.4519 9.95395C74.5461 8.39223 73.7638 7.34392 72.2052 7.20762L72.2042 7.20967ZM70.235 11.7309C70.1971 12.2586 70.1223 12.7802 70.0117 13.2977C69.8643 13.9894 69.5345 14.2938 68.8177 14.3276C68.2054 14.3563 67.5909 14.3337 66.9775 14.3337C66.9775 14.344 66.9775 14.3552 66.9775 14.3655C66.3805 14.3655 65.7835 14.3563 65.1865 14.3696C64.8855 14.3768 64.7472 14.3143 64.8199 13.9648C64.9643 13.2649 65.0544 12.5537 65.1968 11.8528C65.3575 11.0597 65.7794 10.7164 66.5751 10.6764C67.4947 10.6293 68.4153 10.5852 69.3359 10.6549C70.0271 10.7071 70.2862 11.0289 70.236 11.7309H70.235Z" fill="#236924"/>
<path d="M128.811 7.19947C127.251 6.96686 125.676 7.16463 124.463 7.09905C122.778 7.09905 121.447 7.11237 120.116 7.09085C119.715 7.0847 119.526 7.21382 119.48 7.6186C119.388 8.41483 119.278 9.20901 119.157 10.0011C119.089 10.4438 119.232 10.6078 119.698 10.6027C121.523 10.5822 123.348 10.5914 125.174 10.5975C125.48 10.5975 125.79 10.6119 126.091 10.6611C126.853 10.7861 127.17 11.1601 127.121 11.9236C127.08 12.5517 126.959 13.1748 126.905 13.803C126.866 14.2518 126.661 14.3901 126.214 14.384C124.508 14.3614 122.801 14.3594 121.095 14.384C119.075 14.4137 117.782 15.4333 117.302 17.3896C116.925 18.9339 116.732 20.512 116.696 22.1003C116.659 23.7492 117.352 24.6561 118.982 24.8057C121.512 25.0373 124.061 25.0455 126.591 24.777C127.829 24.6458 128.783 23.9551 129.344 22.8054C129.615 22.25 129.797 21.6617 129.89 21.052C130.165 19.2485 130.454 17.4459 130.688 15.6362C130.921 13.8275 131.274 12.0291 131.325 10.201C131.376 8.40355 130.587 7.46488 128.81 7.2005L128.811 7.19947ZM126.239 17.9686C125.754 19.2669 125.265 20.5601 124.172 21.5029C123.374 22.1905 122.454 22.4365 121.416 22.3145C120.999 22.2653 120.947 22.0819 121.112 21.7335C121.498 20.9157 122.086 20.2589 122.729 19.6409C122.872 19.5026 123.052 19.3919 123.154 19.103C122.47 19.3694 121.996 19.7803 121.565 20.2455C121.154 20.6913 120.758 21.1524 120.359 21.6013C120.152 21.4629 120.225 21.3185 120.24 21.1934C120.594 18.276 123.153 16.6456 125.944 17.5576C126.143 17.6222 126.352 17.6683 126.239 17.9686Z" fill="white"/>
<path d="M44.7685 7.20157C43.1905 6.9669 41.5991 7.1698 40.3887 7.09909C38.651 7.09909 37.2859 7.10832 35.9209 7.09192C35.5994 7.08782 35.4703 7.19132 35.4345 7.51002C35.3331 8.39028 35.2194 9.27054 35.0833 10.1457C35.0259 10.5136 35.1345 10.6058 35.5011 10.6027C37.4119 10.5853 39.3227 10.5904 41.2336 10.5986C41.5561 10.5996 41.8828 10.6263 42.1992 10.6888C42.7829 10.8046 43.1004 11.1796 43.0656 11.773C43.0246 12.4698 42.9068 13.1605 42.8413 13.8563C42.8054 14.2395 42.6693 14.3933 42.2412 14.3871C40.5188 14.3594 38.7943 14.3635 37.0719 14.382C35.0259 14.4045 33.7213 15.4108 33.241 17.3958C32.8632 18.9554 32.6594 20.5489 32.6307 22.1547C32.602 23.7461 33.3229 24.6418 34.9174 24.8108C37.2265 25.0568 39.5562 25.0086 41.8674 24.8518C44.193 24.694 45.2324 23.6939 45.7434 21.4066C46.1817 19.4422 46.365 17.4337 46.6507 15.4446C46.9026 13.6903 47.2047 11.939 47.2651 10.1641C47.3255 8.4118 46.5124 7.46185 44.7685 7.20157ZM42.2074 17.9061C41.6975 19.227 41.2192 20.5653 40.0887 21.5214C39.2562 22.2254 38.3038 22.4621 37.2296 22.2961C36.9019 22.2459 36.8845 22.1188 36.9961 21.8555C37.2798 21.1843 37.715 20.6217 38.2076 20.098C38.4288 19.8623 38.6561 19.6328 38.8803 19.4012C38.8353 19.3582 38.7892 19.3141 38.7442 19.2711C37.9894 19.6154 37.4969 20.2558 36.9644 20.8502C36.7319 21.1095 36.4995 21.3697 36.2343 21.6669C36.0131 20.1021 37.1846 18.2279 38.7022 17.6202C39.7989 17.1816 40.9018 17.2656 42.0057 17.5915C42.1593 17.6366 42.2945 17.6827 42.2084 17.9051L42.2074 17.9061Z" fill="#236924"/>
<path d="M139.615 21.4114C139.155 21.4093 138.693 21.4073 138.236 21.3745C137.217 21.2997 136.921 20.981 137.044 19.9726C137.283 18.0102 137.561 16.053 137.832 14.0947C138.359 10.2959 138.886 6.49821 139.438 2.70254C139.513 2.19017 139.348 2.08257 138.886 2.09692C138.034 2.12254 137.181 2.10409 136.329 2.10409C135.434 2.10409 135.45 2.10716 135.331 2.97615C134.773 7.04543 134.2 11.1127 133.642 15.1819C133.348 17.3267 132.999 19.4633 132.809 21.6215C132.637 23.5869 133.612 24.7398 135.554 24.8351C136.116 24.8627 136.677 24.8935 137.088 24.915C137.87 24.915 138.501 24.9078 139.132 24.9181C139.439 24.9232 139.593 24.8187 139.631 24.4887C139.733 23.6084 139.858 22.7313 139.99 21.8541C140.037 21.5384 139.926 21.4134 139.615 21.4114Z" fill="white"/>
<path d="M59.5544 7.09696C57.5442 7.1318 55.5279 6.98424 53.5239 7.22095C52.2817 7.36749 51.3253 8.00591 50.7436 9.14543C50.4774 9.66703 50.3443 10.2296 50.2398 10.8004C49.8896 12.728 49.6572 14.6739 49.3848 16.6128C49.013 19.2607 48.6393 21.9076 48.2532 24.5535C48.2112 24.8425 48.2983 24.9122 48.5635 24.9102C49.6715 24.902 50.7795 24.9009 51.8885 24.9112C52.1578 24.9132 52.2664 24.8395 52.3053 24.5484C52.5592 22.6414 52.8378 20.7374 53.1081 18.8324C53.4235 16.6066 53.7297 14.3798 54.0584 12.1561C54.2069 11.1529 54.6196 10.7451 55.6231 10.6467C56.2304 10.5873 56.8479 10.6354 57.4613 10.6354C57.4613 10.6211 57.4613 10.6067 57.4613 10.5924C57.9559 10.5924 58.4515 10.5709 58.9441 10.5995C59.2758 10.619 59.3895 10.4807 59.4284 10.1784C59.5472 9.26635 59.6773 8.35637 59.8176 7.44742C59.8534 7.21378 59.8227 7.09081 59.5534 7.09593L59.5544 7.09696Z" fill="#236924"/>
<path d="M94.5217 26.0863C92.8587 25.6261 90.8997 26.74 90.444 28.4053C90.1747 29.388 90.528 30.3677 91.3657 30.8493C92.3979 31.4436 93.4373 31.3196 94.4347 30.7632C95.4311 30.2068 96.0588 29.3818 96.1131 28.5262C96.1223 27.154 95.5253 26.364 94.5228 26.0863H94.5217Z" fill="white"/>
<path d="M83.5976 26.2393C82.0912 26.2464 80.7211 27.2517 80.3258 28.6423C79.9684 29.8986 80.6709 31.0884 81.9427 31.3794C83.319 31.694 84.8459 31.0402 85.5944 29.7972C86.0634 29.0173 86.1935 28.1924 85.7439 27.3655C85.2882 26.5262 84.5069 26.2434 83.5976 26.2393Z" fill="white"/>
<path d="M23.1952 8.92917L23.0938 8.73242C23.0795 8.8226 22.972 8.96197 23.1952 8.92917Z" fill="#41A338"/>
<path d="M39.1404 19.1204C38.9715 19.0845 38.8568 19.1737 38.7441 19.271C38.8476 19.2536 38.952 19.2352 38.8803 19.4012C38.9981 19.3407 39.1026 19.268 39.1404 19.1204Z" fill="#41A338"/>
</svg>
