<svg width="246" height="83" viewBox="0 0 246 83" fill="none" xmlns="http://www.w3.org/2000/svg">
<rect y="0.460449" width="246" height="82" rx="12.6154" fill="#4CBF42" fill-opacity="0.54"/>
<path d="M36.5007 40.3565L16.5845 61.9722C16.5863 61.976 16.5863 61.9818 16.5882 61.9856C17.1999 64.3327 19.295 66.0601 21.7828 66.0601C22.778 66.0601 23.7114 65.7846 24.512 65.3026L24.5756 65.2643L46.9928 52.0366L36.5007 40.3565Z" fill="#EA4335"/>
<path d="M56.6477 36.676L56.629 36.6626L46.9506 30.9259L36.0469 40.8481L46.9898 52.0347L56.6159 46.3553C58.3032 45.4218 59.4499 43.6026 59.4499 41.5061C59.4499 39.421 58.32 37.6114 56.6477 36.676Z" fill="#FBBC04"/>
<path d="M16.5832 20.9468C16.4635 21.3983 16.3999 21.8726 16.3999 22.3624V60.559C16.3999 61.0487 16.4635 61.5231 16.5851 61.9727L37.184 40.9098L16.5832 20.9468Z" fill="#4285F4"/>
<path d="M36.647 41.46L46.9539 30.9218L24.563 17.6463C23.7492 17.1471 22.799 16.8601 21.7833 16.8601C19.2954 16.8601 17.1966 18.5913 16.5849 20.9403C16.5849 20.9423 16.583 20.9442 16.583 20.9461L36.647 41.46Z" fill="#34A853"/>
<path d="M81.3443 33.8744C80.3466 33.8744 79.4993 33.8198 78.8023 33.7104C78.1053 33.5874 77.5313 33.3756 77.0803 33.0749C76.643 32.7743 76.2945 32.3574 76.0348 31.8244C75.7888 31.2778 75.6111 30.5876 75.5018 29.7539C75.4061 28.9066 75.3583 27.8748 75.3583 26.6584C75.3583 25.4421 75.4061 24.4171 75.5018 23.5834C75.6111 22.7361 75.7956 22.0459 76.0553 21.5129C76.315 20.9663 76.6703 20.5426 77.1213 20.2419C77.5723 19.9413 78.1395 19.7363 78.8228 19.6269C79.5198 19.5039 80.3603 19.4424 81.3443 19.4424C81.809 19.4424 82.3078 19.4629 82.8408 19.5039C83.3738 19.5449 83.8931 19.5928 84.3988 19.6474C84.9181 19.7021 85.3828 19.7704 85.7928 19.8524V21.2874C85.3555 21.2191 84.9113 21.1644 84.4603 21.1234C84.0093 21.0688 83.5856 21.0278 83.1893 21.0004C82.8066 20.9731 82.4786 20.9594 82.2053 20.9594C81.358 20.9594 80.6336 20.9799 80.0323 21.0209C79.4446 21.0619 78.9595 21.1713 78.5768 21.3489C78.1941 21.5266 77.9003 21.8204 77.6953 22.2304C77.4903 22.6268 77.34 23.1803 77.2443 23.8909C77.1623 24.6016 77.1213 25.5241 77.1213 26.6584C77.1213 27.6561 77.1486 28.4966 77.2033 29.1799C77.258 29.8496 77.3673 30.3963 77.5313 30.8199C77.709 31.2436 77.9481 31.5716 78.2488 31.8039C78.5631 32.0363 78.9731 32.1934 79.4788 32.2754C79.9981 32.3438 80.6336 32.3779 81.3853 32.3779C81.6723 32.3779 81.9866 32.3711 82.3283 32.3574C82.67 32.3438 83.0048 32.3233 83.3328 32.2959C83.6608 32.2686 83.9341 32.2413 84.1528 32.2139V27.6219H80.9548V26.1254H85.8543V33.4644C85.4033 33.5464 84.9045 33.6216 84.3578 33.6899C83.8248 33.7446 83.2918 33.7856 82.7588 33.8129C82.2395 33.8539 81.768 33.8744 81.3443 33.8744ZM89.7038 33.7104V19.6064H98.8673V21.1234H91.4668V25.8179H97.9038V27.3554H91.4668V32.1934H98.8673V33.7104H89.7038ZM105.069 33.7104V21.1644H100.621V19.6064H111.301V21.1644H106.832V33.7104H105.069ZM118.492 33.7104V19.6064H120.255V33.7104H118.492ZM127.371 33.7104V21.1644H122.923V19.6064H133.603V21.1644H129.134V33.7104H127.371ZM146.083 33.8744C144.989 33.8744 144.08 33.8198 143.356 33.7104C142.645 33.5874 142.078 33.3756 141.655 33.0749C141.245 32.7743 140.944 32.3574 140.753 31.8244C140.561 31.2778 140.438 30.5876 140.384 29.7539C140.329 28.9066 140.302 27.8748 140.302 26.6584C140.302 25.4421 140.329 24.4171 140.384 23.5834C140.438 22.7361 140.561 22.0459 140.753 21.5129C140.944 20.9663 141.245 20.5426 141.655 20.2419C142.078 19.9413 142.645 19.7363 143.356 19.6269C144.08 19.5039 144.989 19.4424 146.083 19.4424C147.176 19.4424 148.078 19.5039 148.789 19.6269C149.513 19.7363 150.08 19.9413 150.49 20.2419C150.914 20.5426 151.221 20.9663 151.413 21.5129C151.604 22.0459 151.727 22.7361 151.782 23.5834C151.836 24.4171 151.864 25.4421 151.864 26.6584C151.864 27.8748 151.836 28.9066 151.782 29.7539C151.727 30.5876 151.604 31.2778 151.413 31.8244C151.221 32.3574 150.914 32.7743 150.49 33.0749C150.08 33.3756 149.513 33.5874 148.789 33.7104C148.078 33.8198 147.176 33.8744 146.083 33.8744ZM146.083 32.3574C146.834 32.3574 147.456 32.3369 147.948 32.2959C148.44 32.2413 148.83 32.1251 149.117 31.9474C149.404 31.7698 149.622 31.4828 149.773 31.0864C149.923 30.6764 150.012 30.1161 150.039 29.4054C150.08 28.6948 150.101 27.7791 150.101 26.6584C150.101 25.5378 150.08 24.6221 150.039 23.9114C150.012 23.2008 149.923 22.6473 149.773 22.2509C149.622 21.8409 149.404 21.5471 149.117 21.3694C148.83 21.1918 148.44 21.0824 147.948 21.0414C147.456 20.9868 146.834 20.9594 146.083 20.9594C145.331 20.9594 144.709 20.9868 144.217 21.0414C143.739 21.0824 143.349 21.1918 143.049 21.3694C142.762 21.5471 142.543 21.8409 142.393 22.2509C142.256 22.6473 142.167 23.2008 142.126 23.9114C142.085 24.6221 142.065 25.5378 142.065 26.6584C142.065 27.7791 142.085 28.6948 142.126 29.4054C142.167 30.1161 142.256 30.6764 142.393 31.0864C142.543 31.4828 142.762 31.7698 143.049 31.9474C143.349 32.1251 143.739 32.2413 144.217 32.2959C144.709 32.3369 145.331 32.3574 146.083 32.3574ZM155.488 33.7104V19.6064H157.292L164.61 30.4099H164.692V19.6064H166.394V33.7104H164.692L157.271 22.7019H157.189V33.7104H155.488Z" fill="#111825"/>
<path d="M191.712 66.1002H195.052V43.5266H191.712V66.1002ZM221.787 51.6579L217.96 61.445H217.845L213.873 51.6579H210.276L216.233 65.3364L212.838 72.9458H216.319L225.5 51.6579H221.787ZM202.852 63.5361C201.756 63.5361 200.232 62.9853 200.232 61.6184C200.232 59.8776 202.13 59.2095 203.771 59.2095C205.239 59.2095 205.931 59.5291 206.822 59.9643C206.563 62.0554 204.779 63.5361 202.852 63.5361ZM203.254 51.1649C200.837 51.1649 198.332 52.2394 197.297 54.6211L200.261 55.8689C200.894 54.6211 202.073 54.213 203.311 54.213C205.038 54.213 206.794 55.2586 206.822 57.1185V57.3496C206.217 57.0011 204.924 56.4792 203.34 56.4792C200.146 56.4792 196.893 58.2507 196.893 61.5606C196.893 64.5816 199.513 66.5282 202.447 66.5282C204.693 66.5282 205.931 65.5116 206.708 64.3198H206.822V66.0623H210.045V57.4074C210.045 53.4004 207.082 51.1649 203.254 51.1649ZM182.619 54.4062H177.869V46.6686H182.619C185.115 46.6686 186.532 48.7543 186.532 50.5365C186.532 52.2863 185.115 54.4062 182.619 54.4062ZM182.533 43.5266H174.532V66.1002H177.869V57.5482H182.533C186.233 57.5482 189.871 54.8432 189.871 50.5365C189.871 46.2298 186.233 43.5266 182.533 43.5266ZM138.905 63.5397C136.598 63.5397 134.667 61.5913 134.667 58.9152C134.667 56.2102 136.598 54.2311 138.905 54.2311C141.183 54.2311 142.969 56.2102 142.969 58.9152C142.969 61.5913 141.183 63.5397 138.905 63.5397ZM142.74 52.9219H142.623C141.873 52.0209 140.433 51.2065 138.617 51.2065C134.811 51.2065 131.323 54.5796 131.323 58.9152C131.323 63.2201 134.811 66.5661 138.617 66.5661C140.433 66.5661 141.873 65.7517 142.623 64.82H142.74V65.9269C142.74 68.8648 141.183 70.4358 138.674 70.4358C136.627 70.4358 135.358 68.9515 134.839 67.7001L131.928 68.9226C132.764 70.9595 134.984 73.4604 138.674 73.4604C142.595 73.4604 145.91 71.1328 145.91 65.461V51.6705H142.74V52.9219ZM148.217 66.1002H151.561V43.5248H148.217V66.1002ZM156.489 58.6534C156.404 55.6865 158.767 54.1733 160.467 54.1733C161.795 54.1733 162.919 54.8414 163.293 55.8021L156.489 58.6534ZM166.868 56.0928C166.235 54.3774 164.302 51.2065 160.353 51.2065C156.432 51.2065 153.175 54.3178 153.175 58.8863C153.175 63.1912 156.404 66.5661 160.727 66.5661C164.216 66.5661 166.235 64.4137 167.07 63.1623L164.476 61.4161C163.611 62.6964 162.429 63.5397 160.727 63.5397C159.027 63.5397 157.815 62.7542 157.037 61.2139L167.213 56.965L166.868 56.0928ZM85.793 53.563V56.8205H93.5179C93.2871 58.6534 92.6823 59.9914 91.7607 60.9214C90.6352 62.0572 88.8762 63.3086 85.793 63.3086C81.0349 63.3086 77.3165 59.4389 77.3165 54.6392C77.3165 49.8377 81.0349 45.9698 85.793 45.9698C88.359 45.9698 90.2326 46.9883 91.6158 48.2974L93.8937 45.9987C91.9611 44.137 89.3969 42.7104 85.793 42.7104C79.2777 42.7104 73.8003 48.0645 73.8003 54.6392C73.8003 61.2139 79.2777 66.5661 85.793 66.5661C89.3092 66.5661 91.9611 65.4014 94.0369 63.2201C96.1716 61.0676 96.8337 58.043 96.8337 55.598C96.8337 54.8414 96.7765 54.1444 96.6602 53.563H85.793ZM105.618 63.5397C103.311 63.5397 101.322 61.6202 101.322 58.8863C101.322 56.1217 103.311 54.2311 105.618 54.2311C107.923 54.2311 109.913 56.1217 109.913 58.8863C109.913 61.6202 107.923 63.5397 105.618 63.5397ZM105.618 51.2065C101.407 51.2065 97.9772 54.4351 97.9772 58.8863C97.9772 63.3086 101.407 66.5661 105.618 66.5661C109.827 66.5661 113.257 63.3086 113.257 58.8863C113.257 54.4351 109.827 51.2065 105.618 51.2065ZM122.283 63.5397C119.976 63.5397 117.986 61.6202 117.986 58.8863C117.986 56.1217 119.976 54.2311 122.283 54.2311C124.589 54.2311 126.578 56.1217 126.578 58.8863C126.578 61.6202 124.589 63.5397 122.283 63.5397ZM122.283 51.2065C118.074 51.2065 114.644 54.4351 114.644 58.8863C114.644 63.3086 118.074 66.5661 122.283 66.5661C126.492 66.5661 129.922 63.3086 129.922 58.8863C129.922 54.4351 126.492 51.2065 122.283 51.2065Z" fill="#111825"/>
</svg>
