<svg width="45" height="32" viewBox="0 0 45 32" fill="none" xmlns="http://www.w3.org/2000/svg">
<rect x="0.5" y="0.5" width="44" height="30.7647" rx="4.79412" fill="white" stroke="white"/>
<path d="M18.5312 30.6765L43.6783 23.0662V26.7059C43.6783 28.8988 41.9006 30.6765 39.7077 30.6765H18.5312Z" fill="#FD6020"/>
<path d="M18.7783 12.0583C19.2625 12.0583 19.8164 12.1294 20.2314 12.4138V13.8357C19.8856 13.4092 19.3316 13.1248 18.7783 13.1248C17.6717 13.1961 16.7726 14.1922 16.8418 15.3298V15.4714C16.8418 16.6091 17.741 17.4625 18.8477 17.4626C19.401 17.4626 19.8856 17.1783 20.2314 16.7517V18.1736C19.7473 18.3869 19.2632 18.529 18.71 18.5291C16.9807 18.5291 15.5968 17.0362 15.5967 15.2585C15.5967 13.4098 16.98 11.9164 18.7783 12.0583ZM29.6416 16.325L31.3018 12.0583H32.5469L29.9873 18.5291H29.3652L26.8057 12.0583H28.0508L29.6416 16.325ZM13.2432 11.9158C13.8657 11.9158 14.4884 12.201 14.9727 12.6277L14.3496 13.4802C14.0731 13.196 13.7275 12.9833 13.3818 12.9832C12.9668 12.912 12.6209 13.2674 12.5518 13.6941C12.5518 14.0495 12.7596 14.1919 13.4512 14.4763C14.8343 15.0451 15.1799 15.4717 15.249 16.325V16.5378C15.1798 17.6756 14.2806 18.5289 13.1738 18.4578C12.3439 18.4577 11.5137 18.0317 11.0986 17.2498L11.8594 16.4675C12.0669 16.9651 12.5513 17.3199 13.1045 17.3201H13.1738C13.5888 17.3201 14.0038 16.8939 14.0039 16.3962C14.0039 16.1118 13.8657 15.8978 13.6582 15.7556C13.3816 15.6134 13.1047 15.4712 12.8281 15.4001C11.7215 15.0446 11.376 14.5473 11.376 13.6941V13.6228C11.4452 12.6273 12.2748 11.8447 13.2432 11.9158ZM6.05176 12.0583C7.71182 12.1296 9.02617 13.552 8.95703 15.2585C8.95695 16.1826 8.54194 17.0357 7.85059 17.6755C7.22813 18.1732 6.46683 18.4584 5.70605 18.3875H3.97656V12.0583H6.05176ZM10.6201 18.3875H9.44434V12.0583H10.6201V18.3875ZM36.4121 13.1248H34.2686V14.5476H36.3438V15.614H34.2686V17.3201H36.4121V18.3875H33.0918V12.0583H36.4121V13.1248ZM38.9072 12.0583C40.2902 12.0586 41.0507 12.6985 41.0508 13.907C41.1199 14.8312 40.4977 15.6131 39.668 15.7556L41.5352 18.3875H40.083L38.4922 15.8269H38.3535V18.3875H37.1777V12.0583H38.9072ZM5.50098 13.1248H5.15527V17.3201H5.50098C6.05419 17.3911 6.67678 17.1783 7.0918 16.823C7.50676 16.3964 7.71482 15.8271 7.71484 15.1873C7.71483 14.6184 7.50681 14.0494 7.0918 13.6228C6.67678 13.2673 6.05428 13.0537 5.50098 13.1248ZM38.3564 14.9734H38.7021C39.4628 14.9733 39.8086 14.6182 39.8086 13.9783C39.8086 13.4095 39.4628 13.0536 38.7021 13.0535H38.3564V14.9734Z" fill="#111825"/>
<path fill-rule="evenodd" clip-rule="evenodd" d="M23.7606 11.9119C22.0313 11.9119 20.5786 13.334 20.5786 15.1829C20.5786 16.9606 21.9621 18.4539 23.7606 18.525C25.5591 18.5961 26.9426 17.1028 27.0118 15.254C26.9426 13.4052 25.5591 11.9119 23.7606 11.9119V11.9119Z" fill="#FD6020"/>
</svg>
