<svg width="45" height="32" viewBox="0 0 45 32" fill="none" xmlns="http://www.w3.org/2000/svg">
<rect width="45" height="31.7647" rx="5.29412" fill="white"/>
<path fill-rule="evenodd" clip-rule="evenodd" d="M14.2215 20.989H11.4954L9.45113 12.9606C9.3541 12.5913 9.14808 12.2648 8.84503 12.1109C8.08873 11.7242 7.25534 11.4165 6.34619 11.2613V10.9522H10.7378C11.3439 10.9522 11.7984 11.4165 11.8742 11.9557L12.9349 17.7469L15.6597 10.9522H18.3101L14.2215 20.989ZM19.8296 20.989H17.255L19.375 10.9522H21.9496L19.8296 20.989ZM25.2799 13.7327C25.3556 13.1921 25.8102 12.883 26.3406 12.883C27.1739 12.8054 28.0818 12.9606 28.8394 13.346L29.294 11.185C28.5363 10.8759 27.703 10.7207 26.9467 10.7207C24.4478 10.7207 22.6295 12.1109 22.6295 14.0404C22.6295 15.5083 23.9175 16.279 24.8266 16.7433C25.8102 17.2063 26.189 17.5154 26.1133 17.9783C26.1133 18.6728 25.3556 18.9819 24.5993 18.9819C23.6902 18.9819 22.781 18.7504 21.949 18.3637L21.4944 20.526C22.4036 20.9114 23.3871 21.0666 24.2963 21.0666C27.0982 21.1429 28.8394 19.7539 28.8394 17.6693C28.8394 15.044 25.2799 14.8901 25.2799 13.7327ZM37.8497 20.989L35.8054 10.9522H33.6096C33.155 10.9522 32.7005 11.2613 32.5489 11.7242L28.7635 20.989H31.4138L31.9428 19.5225H35.1993L35.5024 20.989H37.8497ZM33.984 13.6551L34.7403 17.4378H32.6203L33.984 13.6551Z" fill="#111825"/>
</svg>
