<svg width="45" height="32" viewBox="0 0 45 32" fill="none" xmlns="http://www.w3.org/2000/svg">
<rect width="45" height="31.7647" rx="5.29412" fill="white"/>
<path d="M28.5659 6.65723C33.5222 6.65725 37.5403 10.6272 37.5405 15.5244C37.5405 20.4219 33.5223 24.3925 28.5659 24.3926C26.3435 24.3926 24.3111 23.5926 22.7437 22.2705C21.1764 23.5921 19.1452 24.3925 16.9233 24.3926C11.9669 24.3926 7.94873 20.4219 7.94873 15.5244C7.94898 10.6272 11.967 6.65723 16.9233 6.65723C19.145 6.65732 21.1765 7.45694 22.7437 8.77832C24.311 7.45642 26.3437 6.65723 28.5659 6.65723Z" fill="#ED0006"/>
<path d="M28.5659 6.65723C33.5222 6.65725 37.5403 10.6272 37.5405 15.5244C37.5405 20.4219 33.5223 24.3926 28.5659 24.3926C26.3435 24.3926 24.3111 23.5926 22.7437 22.2705C24.6724 20.644 25.897 18.2263 25.897 15.5244C25.8968 12.8225 24.6726 10.4047 22.7437 8.77832C24.311 7.45642 26.3437 6.65723 28.5659 6.65723Z" fill="#F9A000"/>
<path d="M22.7383 8.77832C24.6673 10.4048 25.8916 12.8233 25.8916 15.5254C25.8915 18.2271 24.6669 20.6441 22.7383 22.2705C20.8101 20.6441 19.5861 18.2267 19.5859 15.5254C19.5859 12.8237 20.8097 10.4048 22.7383 8.77832Z" fill="#FF5E00"/>
</svg>
