<svg width="24" height="29" viewBox="0 0 24 29" fill="none" xmlns="http://www.w3.org/2000/svg">
<path d="M22.1899 17.4504C22.4655 17.4504 22.741 17.726 22.741 18.0015V19.1037C22.741 19.4137 22.4655 19.6549 22.1899 19.6549H20.5366C20.5366 21.4804 19.0555 22.9615 17.2299 22.9615C15.4043 22.9615 13.9232 21.4804 13.9232 19.6549H9.5143C9.5143 21.4804 8.03318 22.9615 6.20761 22.9615C4.38205 22.9615 2.90093 21.4804 2.90093 19.6549V15.2459H8.13651C8.27429 15.2459 8.41207 15.1426 8.41207 14.9704V14.4193C8.41207 14.2815 8.27429 14.1437 8.13651 14.1437H0.972033C0.79981 14.1437 0.696476 14.0404 0.696476 13.8682V13.317C0.696476 13.1793 0.79981 13.0415 0.972033 13.0415H9.23874C9.37652 13.0415 9.5143 12.9382 9.5143 12.7659V12.2148C9.5143 12.077 9.37652 11.9393 9.23874 11.9393H2.07426C1.90204 11.9393 1.7987 11.8359 1.7987 11.6637V11.1126C1.7987 10.9748 1.90204 10.837 2.07426 10.837H10.341C10.4787 10.837 10.6165 10.7337 10.6165 10.5615V10.0104C10.6165 9.87258 10.4787 9.73481 10.341 9.73481H0.972033C0.79981 9.73481 0.696476 9.63147 0.696476 9.45925V8.90813C0.696476 8.77036 0.79981 8.63258 0.972033 8.63258H2.90093V6.97924C2.90093 6.08368 3.62427 5.3259 4.55427 5.3259H13.3721C14.2677 5.3259 15.0254 6.08368 15.0254 6.97924V8.63258H16.541C16.9543 8.63258 17.4021 8.83925 17.7121 9.14925L21.1221 12.5593C21.4321 12.8693 21.6388 13.317 21.6388 13.7304V17.4504H22.1899ZM6.20761 21.3082C7.10317 21.3082 7.86095 20.5849 7.86095 19.6549C7.86095 18.7593 7.10317 18.0015 6.20761 18.0015C5.27761 18.0015 4.55427 18.7593 4.55427 19.6549C4.55427 20.5849 5.27761 21.3082 6.20761 21.3082ZM17.2299 21.3082C18.1254 21.3082 18.8832 20.5849 18.8832 19.6549C18.8832 18.7593 18.1254 18.0015 17.2299 18.0015C16.2999 18.0015 15.5765 18.7593 15.5765 19.6549C15.5765 20.5849 16.2999 21.3082 17.2299 21.3082ZM19.9855 14.1437V13.7304L16.541 10.2859H15.0254V14.1437H19.9855Z" fill="#2563EB"/>
</svg>
