<svg width="34" height="34" viewBox="0 0 34 34" fill="none" xmlns="http://www.w3.org/2000/svg">
<path d="M23.8278 13.1468C23.8466 13.3537 23.8598 13.5619 23.8598 13.7716C23.8598 15.5945 23.1357 17.3426 21.8467 18.6316C20.5578 19.9205 18.8096 20.6447 16.9867 20.6447C15.1639 20.6447 13.4157 19.9205 12.1267 18.6316C10.8378 17.3426 10.1137 15.5945 10.1137 13.7716C10.1137 13.5619 10.1275 13.3537 10.1456 13.1468H23.8278ZM27.8996 10.9946C27.9763 10.7345 27.9656 10.4565 27.8694 10.203C27.7731 9.94947 27.5964 9.73447 27.3664 9.59084L17.9878 3.6682C17.6878 3.48013 17.3408 3.38037 16.9867 3.38037C16.6326 3.38037 16.2856 3.48013 15.9856 3.6682L6.60631 9.59084C6.37723 9.73548 6.20136 9.95064 6.1052 10.2039C6.00904 10.4572 5.99779 10.7349 6.07314 10.9951C6.1485 11.2553 6.30638 11.484 6.52301 11.6467C6.73963 11.8094 7.00326 11.8973 7.27417 11.8971H26.6993C26.9706 11.8989 27.2351 11.8115 27.452 11.6485C27.669 11.4855 27.8258 11.2558 27.8996 10.9946ZM25.8196 19.9345C25.1892 19.3071 24.4933 18.7492 23.7438 18.2703C23.0035 19.3851 21.999 20.2994 20.8197 20.9317C19.6404 21.5641 18.3229 21.8949 16.9848 21.8947C15.6466 21.8945 14.3293 21.5633 13.1502 20.9306C11.971 20.2978 10.9668 19.3832 10.2268 18.2683C8.4674 19.3974 7.01999 20.9506 6.0176 22.7852C5.01522 24.6197 4.49 26.6768 4.49023 28.7674C4.49079 29.2644 4.68845 29.7408 5.03986 30.0922C5.39128 30.4436 5.86773 30.6413 6.36471 30.6419H27.6087C28.1057 30.6413 28.5822 30.4436 28.9336 30.0922C29.285 29.7408 29.4826 29.2644 29.4832 28.7674C29.4882 27.1258 29.167 25.4995 28.538 23.9832C27.9091 22.4668 26.9851 21.0906 25.8196 19.9345Z" fill="white"/>
</svg>
