<svg width="72" height="70" viewBox="0 0 72 70" fill="none" xmlns="http://www.w3.org/2000/svg">
<g clip-path="url(#clip0_5026_6601)">
<path d="M27.8967 50.5407V53.7059C28.9722 54.1445 29.129 54.3772 29.129 55.5286C29.129 58.5395 29.129 61.5504 29.129 64.5613C29.129 65.6833 28.955 65.9357 27.8746 66.3472V70.0024H25.3978V66.3252H12.9035V69.9902H10.3924V66.3276C9.25567 66.1243 9.09398 65.3354 9.10378 64.3628C9.13563 61.4696 9.11603 58.5738 9.11603 55.6781C9.11603 54.2253 9.34877 53.946 10.8113 53.7084C10.4463 52.824 10.0837 51.9543 9.72605 51.0797C8.73385 48.6641 7.68776 46.2681 6.76416 43.8256C4.78957 38.5952 4.94391 33.3623 6.92095 28.1612C9.27037 21.9826 11.6296 15.8065 13.9888 9.63041C15.0447 6.86206 17.2251 5.76697 20.0743 6.51908C20.3144 6.58278 20.6867 6.44314 20.8925 6.27165C22.8769 4.61309 25.0279 3.23626 27.4043 2.20977C32.7695 -0.112703 38.2964 -0.602676 43.9752 0.732501C47.9831 1.6757 51.5673 3.49105 54.7007 6.1663C55.1294 6.53133 55.4822 6.62443 56.0457 6.45294C58.177 5.79882 60.5142 6.77877 61.3888 8.82685C62.5598 11.5658 63.5765 14.3733 64.6373 17.1588C66.1685 21.1766 67.7438 25.1797 69.1818 29.2293C71.0437 34.4745 70.7375 39.6878 68.6331 44.8129C67.4228 47.7626 66.193 50.7024 64.9436 53.7157C65.1371 53.7427 65.2816 53.7623 65.4262 53.7819C66.2077 53.897 66.634 54.3282 66.6364 55.1342C66.6511 58.3999 66.6462 61.6655 66.6389 64.9312C66.6389 65.7274 66.1611 66.1463 65.3968 66.3203V69.9853H62.9249V66.3423H50.4085V69.9975H47.9292V66.3276C46.8048 66.1243 46.6161 65.3722 46.6259 64.4143C46.6553 61.4745 46.6553 58.5322 46.6259 55.5899C46.6161 54.6491 46.8415 53.9411 47.8705 53.7427V50.5481C41.2191 53.1474 34.5848 53.1645 27.8942 50.5407H27.8967ZM19.332 20.5887C22.8181 20.988 24.1264 22.4628 24.1264 25.8804C24.1264 28.5899 24.1484 31.2995 24.1166 34.009C24.1019 35.3564 24.3419 36.6206 24.925 37.8382C26.3337 40.7804 27.2671 43.8673 27.6223 47.1182C27.6689 47.5372 27.8257 47.7993 28.2617 47.983C34.6926 50.7146 41.1113 50.7122 47.5348 47.9659C47.9292 47.7969 48.0983 47.5641 48.1424 47.155C48.4976 43.8575 49.4555 40.7314 50.8838 37.7451C51.435 36.5936 51.6604 35.3932 51.6481 34.1168C51.6212 31.1525 51.6334 28.1881 51.6432 25.2238C51.6481 23.3129 52.4664 21.8577 54.2181 21.0541C54.8673 20.7577 55.6218 20.6965 56.3813 20.5152C56.3151 20.3388 56.2441 20.1256 56.1583 19.9198C55.1833 17.6194 54.196 15.3263 53.2406 13.021C53.0127 12.4723 52.7506 11.872 52.7677 11.3037C52.7947 10.2943 53.025 9.28988 53.1867 8.17274C43.5538 -0.291542 29.5945 1.49441 22.3943 8.41773C23.1195 9.66471 23.2885 10.9803 22.7961 12.3473C22.5462 13.0431 22.24 13.7192 21.9533 14.4003C21.091 16.441 20.2262 18.4793 19.332 20.5911V20.5887ZM50.4453 53.7378C50.5457 53.75 50.6339 53.7721 50.7196 53.7721C54.4018 53.7721 58.0839 53.7647 61.7661 53.7868C62.1973 53.7868 62.3124 53.5614 62.4398 53.2478C63.7652 50.0434 65.1151 46.8488 66.4159 43.6345C68.1823 39.2689 68.5155 34.7881 66.9108 30.3416C64.4854 23.624 61.8812 16.9702 59.3432 10.2943C58.8434 8.9763 57.6381 8.42753 56.4572 8.9273C55.3058 9.41237 54.9187 10.5736 55.4797 11.9039C56.8566 15.1622 58.2285 18.423 59.6225 21.6739C60.1516 22.9062 60.404 24.1777 60.3991 25.5178C60.3868 30.0794 60.3942 34.6435 60.3942 39.2052V39.9769H57.8929C57.8929 39.6854 57.8929 39.4355 57.8929 39.1831C57.8929 34.5749 57.888 29.9643 57.8977 25.3561C57.8977 24.6187 57.7312 23.967 57.1138 23.5236C56.5283 23.1022 55.8668 23.0263 55.2078 23.3448C54.4655 23.7049 54.1421 24.337 54.1421 25.1479C54.1421 28.1808 54.1274 31.2162 54.147 34.2491C54.1568 35.8048 53.8873 37.2869 53.1916 38.6834C50.8421 43.4116 50.1145 48.4412 50.4428 53.7378H50.4453ZM25.3782 53.7745C25.3782 52.8534 25.3684 52.0425 25.3782 51.2316C25.4346 46.9492 24.582 42.8604 22.7128 39.0018C21.9386 37.4045 21.5907 35.7435 21.6128 33.9698C21.652 31.0741 21.6299 28.1783 21.6201 25.2826C21.6152 23.9303 20.721 23.0606 19.5059 23.1953C18.499 23.3056 17.8767 24.1091 17.8743 25.3365C17.8694 29.9692 17.8743 34.6019 17.8743 39.2346C17.8743 39.4796 17.8743 39.7246 17.8743 39.9597H15.373C15.373 39.6511 15.373 39.3963 15.373 39.1439C15.373 34.7195 15.3901 30.295 15.3632 25.8706C15.3534 24.2904 15.6474 22.8082 16.2794 21.3555C17.6685 18.178 18.9963 14.9736 20.3536 11.7814C20.6867 10.9974 20.6867 10.2429 20.1404 9.55691C19.6407 8.9273 18.962 8.65781 18.1707 8.77296C17.2251 8.9126 16.6935 9.53732 16.3652 10.4021C13.9864 16.6713 11.5928 22.9332 9.21158 29.2024C7.47462 33.7787 7.35458 38.3894 9.11848 42.9682C10.4659 46.4617 11.9677 49.8964 13.3739 53.3679C13.5405 53.7745 13.7953 53.777 14.1309 53.7745C17.6734 53.7696 21.2184 53.7721 24.7609 53.7721C24.9397 53.7721 25.1185 53.7721 25.3733 53.7721L25.3782 53.7745ZM26.5787 63.7504V56.3322H11.6565V63.7504H26.5787ZM64.1155 56.3273H49.1958V63.743H64.1155V56.3273Z" fill="#236924"/>
<path d="M26.5789 63.7504H11.6567V56.3322H26.5789V63.7504Z" fill="#4CBF42"/>
<path d="M64.1155 56.3273V63.743H49.1958V56.3273H64.1155Z" fill="#4CBF42"/>
<path d="M37.6132 36.4295V39.901C36.8293 39.9696 36.06 40.0357 35.1609 40.1141C35.1315 39.2787 35.0164 38.4751 35.0972 37.6936C35.2197 36.5153 34.9355 35.8587 33.7082 35.3393C31.1677 34.2614 30.0309 31.9904 29.5605 29.3959C28.5561 23.8495 31.2828 19.3662 35.7268 16.8257C39.6589 14.5792 43.8506 14.611 48.0962 15.8286C49.0737 16.1079 49.4216 16.9261 48.8802 17.7713C47.7581 19.523 47.5254 21.4633 47.4299 23.4722C47.3343 25.4786 47.3172 27.5169 46.9227 29.4719C46.0187 33.9674 42.7555 36.6549 38.042 36.4271C37.9293 36.4222 37.8141 36.4271 37.6132 36.4271V36.4295ZM46.0163 17.8179C45.323 17.7223 44.7326 17.6096 44.1372 17.5606C40.8765 17.2887 37.8827 17.9526 35.3275 20.1183C32.2039 22.7666 31.0966 26.4365 32.3509 30.1554C32.836 31.5959 33.6665 32.7694 35.2614 33.3231C35.6999 29.3861 36.6382 25.6428 38.2502 22.0194C39.0195 22.3599 39.7471 22.6809 40.5139 23.0214C39.0219 26.5345 38.064 30.104 37.7406 33.8743C39.1714 34.0041 40.4967 33.867 41.7192 33.1344C43.6399 31.9855 44.4288 30.1432 44.6713 28.0534C44.8502 26.5198 44.8575 24.9617 44.8942 23.4134C44.9408 21.5245 45.3009 19.7018 46.0114 17.8179H46.0163Z" fill="#4CBF42"/>
</g>
<defs>
<clipPath id="clip0_5026_6601">
<rect width="71.1514" height="70" fill="white" transform="translate(0.5)"/>
</clipPath>
</defs>
</svg>
