<svg width="53" height="53" viewBox="0 0 53 53" fill="none" xmlns="http://www.w3.org/2000/svg">
<path d="M47.9518 6.99984H45.7852V4.83317C45.7852 3.63565 44.8149 2.6665 43.6185 2.6665C42.4221 2.6665 41.4518 3.63565 41.4518 4.83317V8.12109C40.2519 9.01679 39.0943 9.9543 37.9698 10.9254C34.7087 8.47252 30.6705 6.99984 26.2852 6.99984C15.5333 6.99984 6.78516 15.7469 6.78516 26.4998C6.78516 37.2528 15.5333 45.9998 26.2852 45.9998C37.037 45.9998 45.7852 37.2528 45.7852 26.4998C45.7852 22.1143 44.3125 18.0761 41.8596 14.8152C42.8307 13.6907 43.7682 12.5331 44.6639 11.3332H47.9518C49.1483 11.3332 50.1185 10.364 50.1185 9.1665C50.1185 7.96899 49.1483 6.99984 47.9518 6.99984ZM41.4518 26.4998C41.4518 34.8619 34.6483 41.6665 26.2852 41.6665C17.922 41.6665 11.1185 34.8619 11.1185 26.4998C11.1185 18.1378 17.922 11.3332 26.2852 11.3332C29.3958 11.3332 32.2888 12.2772 34.6981 13.8901C34.0678 14.4896 33.441 15.0926 32.8213 15.7027C32.3748 16.151 31.9371 16.6079 31.4966 17.0621C29.9434 16.2004 28.1838 15.6665 26.2852 15.6665C20.3121 15.6665 15.4518 20.5268 15.4518 26.4998C15.4518 32.4729 20.3121 37.3332 26.2852 37.3332C32.2582 37.3332 37.1185 32.4729 37.1185 26.4998C37.1185 24.6012 36.5846 22.8416 35.7227 21.2884C36.1771 20.8479 36.634 20.4102 37.0821 19.9637C37.6922 19.344 38.2952 18.7172 38.8947 18.0867C40.5078 20.4962 41.4518 23.3894 41.4518 26.4998ZM32.7852 26.4998C32.7852 30.0842 29.8695 32.9998 26.2852 32.9998C22.7008 32.9998 19.7852 30.0842 19.7852 26.4998C19.7852 22.9155 22.7008 19.9998 26.2852 19.9998C27.0344 19.9998 27.7431 20.1528 28.4135 20.387C27.1297 21.8504 25.8971 23.3649 24.7531 24.9678C24.2253 25.7099 24.1943 26.7371 24.7531 27.5199C25.4579 28.5073 26.8296 28.7365 27.8172 28.0319C29.4201 26.8879 30.9346 25.6553 32.398 24.3715C32.6322 25.0419 32.7852 25.7506 32.7852 26.4998Z" fill="#4CBF42"/>
</svg>
