<svg width="20" height="21" viewBox="0 0 20 21" fill="none" xmlns="http://www.w3.org/2000/svg">
<path d="M6 16.5396L10 13.4896L14 16.5396L12.5 11.5896L16.5 8.73955H11.6L10 3.53955L8.4 8.73955H3.5L7.5 11.5896L6 16.5396ZM10 20.5396C8.61667 20.5396 7.31667 20.2771 6.1 19.7521C4.88333 19.2271 3.825 18.5146 2.925 17.6146C2.025 16.7146 1.3125 15.6562 0.7875 14.4396C0.2625 13.2229 0 11.9229 0 10.5396C0 9.15622 0.2625 7.85622 0.7875 6.63955C1.3125 5.42288 2.025 4.36455 2.925 3.46455C3.825 2.56455 4.88333 1.85205 6.1 1.32705C7.31667 0.802051 8.61667 0.539551 10 0.539551C11.3833 0.539551 12.6833 0.802051 13.9 1.32705C15.1167 1.85205 16.175 2.56455 17.075 3.46455C17.975 4.36455 18.6875 5.42288 19.2125 6.63955C19.7375 7.85622 20 9.15622 20 10.5396C20 11.9229 19.7375 13.2229 19.2125 14.4396C18.6875 15.6562 17.975 16.7146 17.075 17.6146C16.175 18.5146 15.1167 19.2271 13.9 19.7521C12.6833 20.2771 11.3833 20.5396 10 20.5396Z" fill="#FFD65E"/>
</svg>
