<svg width="71" height="70" viewBox="0 0 71 70" fill="none" xmlns="http://www.w3.org/2000/svg">
<g clip-path="url(#clip0_5026_6630)">
<path d="M0.5 60.9692V27.6147C0.907253 26.9627 1.51539 26.8093 2.24954 26.8129C8.00039 26.8294 13.7494 26.8221 19.5003 26.8221C19.7669 26.8221 20.0335 26.8221 20.3659 26.8221V26.013C20.3659 23.7138 20.3787 21.4127 20.3568 19.1135C20.3513 18.4743 20.554 17.9812 21.0106 17.5374C22.2195 16.3613 23.4212 15.1761 24.5827 13.9543C24.8292 13.6932 25.0027 13.2585 25.0137 12.8988C25.0612 11.3976 25.0082 9.89277 25.0447 8.38977C25.0594 7.75789 24.9169 7.28489 24.4238 6.83929C23.6641 6.1508 23.697 5.53718 24.4384 4.79024C25.7387 3.479 27.0463 2.17506 28.363 0.880251C28.6863 0.560658 29.0534 0.290373 29.4003 0C43.1428 0 56.8853 0 70.6278 0V14.3543C70.2516 14.9898 69.6928 15.1816 68.9641 15.1798C62.1888 15.1615 55.4116 15.1688 48.6362 15.1688H47.9148L47.8162 15.3386C48.5997 16.0892 49.4306 16.796 50.1428 17.6068C50.4697 17.9812 50.7071 18.5492 50.7364 19.0459C50.8167 20.4083 50.7638 21.7762 50.7638 23.144C50.7638 24.3457 50.7638 25.5455 50.7638 26.8202H51.6312C57.3803 26.8202 63.1311 26.8276 68.8801 26.8111C69.6143 26.8093 70.2224 26.9627 70.6297 27.6128V60.9674C70.3886 61.2669 70.1731 61.592 69.9028 61.8622C67.4246 64.3478 64.9318 66.8187 62.4572 69.3115C61.9934 69.779 61.493 69.9982 60.8227 69.9982C43.9829 69.9872 27.1449 69.9872 10.3051 69.9982C9.63671 69.9982 9.13632 69.779 8.67062 69.3115C6.23076 66.8516 3.76898 64.4135 1.32364 61.959C1.02231 61.6559 0.773937 61.2998 0.5 60.9674L0.5 60.9692ZM2.87229 29.1925C2.85768 29.3825 2.83577 29.5359 2.83394 29.6893C2.83394 39.6916 2.82846 49.6921 2.84855 59.6945C2.84855 59.9867 3.03118 60.3465 3.24302 60.562C5.45278 62.8009 7.67897 65.0271 9.92708 67.2278C10.1681 67.4633 10.5864 67.6441 10.9224 67.6441C27.3586 67.6642 43.793 67.6642 60.2292 67.6441C60.547 67.6441 60.9414 67.4798 61.1697 67.257C63.4178 65.0545 65.6477 62.832 67.8501 60.5857C68.0985 60.3319 68.2756 59.8863 68.2775 59.5301C68.2994 49.6648 68.2957 39.7994 68.2957 29.9358C68.2957 29.6948 68.2957 29.4537 68.2957 29.1907H2.87229V29.1925ZM68.2738 2.37595H50.8039V12.7892H68.2738V2.37595ZM48.375 12.8221V2.32846H47.5021C42.0964 2.32846 36.6925 2.34307 31.2869 2.31203C30.5217 2.30655 29.9665 2.48917 29.4423 3.06444C28.5767 4.01409 27.6216 4.88338 26.7596 5.73076C28.2115 7.17532 29.5775 8.53587 30.9326 9.88364C31.4823 9.34307 32.0794 8.75867 32.7972 8.05557C32.2621 7.57344 31.6685 7.15888 31.2467 6.61101C31.0166 6.31151 30.9344 5.73624 31.0549 5.37647C31.1554 5.07514 31.6448 4.73728 31.9717 4.7245C32.3406 4.71171 32.7972 4.96739 33.0857 5.24315C34.3403 6.43569 35.5347 7.69215 36.7875 8.88651C37.034 9.1221 37.4431 9.29924 37.781 9.30472C40.0382 9.34125 42.2955 9.31751 44.5545 9.32664C45.6558 9.33029 46.0794 9.76494 46.0904 10.8643C46.0977 11.5127 46.0904 12.161 46.0904 12.8239H48.3696L48.375 12.8221ZM27.4097 19.8531V26.7764H43.709V19.8531H27.4097ZM24.9827 26.7892V16.7741C24.254 17.5411 23.6385 18.1456 23.0815 18.7994C22.8825 19.0313 22.7199 19.3801 22.7163 19.6796C22.6834 21.6374 22.6998 23.5951 22.6998 25.5528C22.6998 25.9546 22.6998 26.3582 22.6998 26.7892H24.9845H24.9827ZM48.4298 26.7892C48.4298 24.2799 48.4298 21.8474 48.4262 19.4148C48.4262 19.3071 48.4097 19.1665 48.3422 19.0989C47.6409 18.3775 46.9286 17.6671 46.1361 16.8727V26.791H48.428L48.4298 26.7892ZM29.709 17.4607C29.709 15.7422 29.709 14.0639 29.7053 12.3874C29.7053 12.2797 29.6889 12.1391 29.6213 12.0697C28.9219 11.3501 28.2096 10.6415 27.4097 9.83799V17.4607H29.709ZM32.0521 17.448H34.333V9.79598C33.5331 10.6288 32.872 11.3081 32.2274 12.0039C32.1306 12.108 32.0612 12.2833 32.0612 12.4258C32.0502 14.0804 32.0539 15.7368 32.0539 17.448H32.0521ZM36.74 17.4644H39.0338V11.6588C38.3617 11.6588 37.7299 11.6387 37.1016 11.6752C36.9738 11.6825 36.7565 11.9071 36.7546 12.0331C36.7309 13.8247 36.7382 15.6181 36.7382 17.4626L36.74 17.4644ZM41.4645 11.7026V17.4425H43.7181V11.7026H41.4645Z" fill="#236924"/>
<path d="M68.2738 2.37592V12.7892H50.804V2.37592H68.2738Z" fill="#4CBF42"/>
<path d="M48.3751 12.822H46.0959C46.0959 12.1591 46.1014 11.5108 46.0959 10.8625C46.0832 9.76308 45.6595 9.33026 44.5601 9.32478C42.3028 9.31565 40.0438 9.33939 37.7865 9.30287C37.4487 9.29739 37.0396 9.11842 36.793 8.88466C35.5402 7.69029 34.3477 6.43384 33.0913 5.2413C32.8027 4.96736 32.3461 4.70986 31.9772 4.72264C31.6503 4.7336 31.1609 5.07328 31.0605 5.37461C30.9399 5.73438 31.0203 6.30783 31.2522 6.60916C31.6723 7.15703 32.2676 7.57159 32.8027 8.05372C32.085 8.75682 31.4896 9.34305 30.9381 9.88179C29.583 8.53402 28.217 7.17529 26.7651 5.72891C27.6271 4.88153 28.5822 4.01223 29.4479 3.06259C29.972 2.48732 30.5254 2.30652 31.2924 2.31017C36.6963 2.34305 42.1019 2.32661 47.5076 2.32661H48.3806V12.8202L48.3751 12.822Z" fill="#4CBF42"/>
<path d="M29.7072 17.4589H27.408V9.83618C28.2079 10.6397 28.9201 11.3483 29.6195 12.0679C29.6871 12.1373 29.7036 12.2779 29.7036 12.3856C29.709 14.0621 29.7072 15.7404 29.7072 17.4589Z" fill="#4CBF42"/>
<path d="M32.0521 17.4479C32.0521 15.7367 32.0485 14.0803 32.0594 12.4258C32.0594 12.2833 32.1288 12.108 32.2256 12.0039C32.8703 11.3099 33.5314 10.6306 34.3313 9.79596V17.4479H32.0503H32.0521Z" fill="#4CBF42"/>
<path d="M36.7401 17.4626C36.7401 15.6181 36.7328 13.8265 36.7565 12.0331C36.7565 11.9071 36.9757 11.6825 37.1035 11.6752C37.7317 11.6368 38.3636 11.6588 39.0357 11.6588V17.4644H36.7419L36.7401 17.4626Z" fill="#4CBF42"/>
<path d="M41.4646 11.7007H43.7182V17.4406H41.4646V11.7007Z" fill="#4CBF42"/>
<path d="M46.7679 40.5628C47.0765 40.3491 47.3213 40.1866 47.5568 40.0131C48.0116 39.6752 48.4882 39.5255 49.0142 39.8414C49.542 40.161 49.6223 40.6596 49.5365 41.2129C49.4269 41.9105 49.3429 42.6136 49.1804 43.2985C49.0434 43.8774 49.1694 44.334 49.4963 44.8252C50.9701 47.0441 52.4092 49.2867 53.8592 51.5239C54.3907 52.3439 54.3815 52.7 53.8063 53.5054C52.0311 55.9891 50.2433 58.4636 48.4864 60.9601C48.0481 61.5829 47.5221 61.8404 46.7606 61.8294C44.4796 61.7984 42.1968 61.8184 39.914 61.8184C39.6675 61.8184 39.4209 61.8184 39.0721 61.8184C39.0721 62.2403 39.1598 62.6256 39.0502 62.9434C38.9114 63.3415 38.6868 63.7926 38.358 64.0209C37.9398 64.3113 37.4358 64.1359 37.0468 63.7798C36.9464 63.6867 36.8313 63.6027 36.7564 63.4913C35.7538 62.0175 34.3604 61.6943 32.6346 61.7801C29.8806 61.9171 27.1138 61.7983 24.3526 61.8276C23.5855 61.8367 23.0705 61.5609 22.6359 60.9418C20.8918 58.4636 19.1167 56.0092 17.3544 53.5437C16.7335 52.6744 16.7316 52.3731 17.327 51.4508C18.9341 48.9653 20.543 46.4798 22.1939 43.9267C21.8287 43.6546 21.4781 43.3807 21.1128 43.1286C20.6325 42.7963 20.2764 42.3945 20.4097 41.7681C20.5485 41.1106 21.0562 40.8805 21.6607 40.7856C22.2232 40.6979 22.7838 40.5299 23.3463 40.5189C24.2503 40.5007 24.7489 40.0441 25.2072 39.3081C26.6628 36.9687 28.2059 34.6841 29.6834 32.3574C30.0833 31.7274 30.5874 31.4735 31.3233 31.479C34.1522 31.5009 36.9829 31.5028 39.8136 31.479C40.5842 31.4717 41.0773 31.7657 41.4882 32.4159C43.0716 34.9178 44.6969 37.3924 46.3077 39.8761C46.4428 40.0843 46.5853 40.2888 46.7716 40.5646L46.7679 40.5628ZM39.063 54.8221C40.1204 54.8221 41.0974 54.6943 42.027 54.8495C43.8076 55.149 44.8905 54.4258 45.6155 52.8753C45.7763 52.532 45.7909 52.3329 45.5936 52.0298C44.9362 51.018 44.286 50.0008 43.6779 48.958C43.4113 48.4996 43.0898 48.2787 42.5566 48.2257C41.764 48.1472 40.9805 47.9755 40.1952 47.8385C39.6602 47.7454 39.2474 47.4897 39.1251 46.9272C39.0064 46.3775 39.2182 45.9502 39.6748 45.6324C40.1003 45.3347 40.5203 45.0279 40.9166 44.7449C40.9038 44.6335 40.913 44.5823 40.891 44.5476C40.1003 43.2693 39.315 41.9872 38.5096 40.7198C38.0366 39.9765 37.6823 38.9703 36.9957 38.6069C36.298 38.238 35.2571 38.4808 34.3695 38.5247C34.1102 38.5375 33.7687 38.7256 33.6281 38.9411C32.819 40.1793 32.1196 41.4941 31.2631 42.6958C30.5125 43.7496 30.1819 44.7923 30.6056 46.0525C30.7554 46.4999 30.7609 46.993 30.8485 47.4623C30.949 48.0047 30.8266 48.4704 30.3554 48.7809C29.8824 49.0932 29.4058 49.0219 28.951 48.7078C28.6424 48.4941 28.3283 48.2841 27.9923 48.054C27.4572 48.9197 26.9623 49.7086 26.4801 50.5085C26.0838 51.1678 25.388 51.8471 25.4081 52.4991C25.4282 53.1584 26.1386 53.8158 26.6007 54.4349C26.7468 54.6303 27.0609 54.8057 27.3001 54.8075C29.7418 54.8349 32.1853 54.833 34.627 54.8093C34.8863 54.8075 35.1968 54.6723 35.394 54.497C35.9711 53.9802 36.4569 53.3538 37.0705 52.8917C37.3828 52.6562 37.9581 52.5082 38.2923 52.6379C38.6283 52.7676 38.8931 53.2588 39.0411 53.6478C39.1616 53.9656 39.0648 54.3655 39.0648 54.8257L39.063 54.8221ZM24.5735 42.6721C25.1415 43.4154 24.9187 44.0436 24.4822 44.7047C22.8897 47.1172 21.3374 49.5552 19.7504 51.9713C19.513 52.3311 19.5112 52.5758 19.7669 52.9283C21.2425 54.9518 22.698 56.9898 24.1407 59.0371C24.3781 59.3749 24.6356 59.4973 25.0429 59.49C26.3194 59.4662 27.5978 59.4808 28.8743 59.4808H32.6912C31.8822 58.6718 31.926 57.9249 32.7076 57.1506C30.5508 57.1506 28.5657 57.1286 26.5824 57.1615C25.8592 57.1743 25.3826 56.9077 25.0064 56.305C24.3909 55.3207 23.7462 54.3546 23.076 53.4067C22.6322 52.7822 22.6487 52.227 23.0559 51.586C24.1791 49.82 25.2766 48.0358 26.356 46.2424C26.7431 45.5977 27.1632 45.0772 28.0982 45.2434C27.921 44.1824 27.7585 43.209 27.5868 42.1753C26.5605 42.3434 25.6017 42.5004 24.5735 42.6702V42.6721ZM27.6836 39.7428C29.0332 39.6204 29.2195 39.7044 29.7911 40.6614C30.5326 39.4634 31.2868 38.3 31.9808 37.102C32.3661 36.4354 32.8647 36.1305 33.6408 36.1542C34.8717 36.1926 36.1045 36.1907 37.3335 36.1542C38.1024 36.1305 38.6046 36.4135 39.0064 37.0783C40.3505 39.2953 41.7348 41.4905 43.1209 43.682C43.5811 44.4088 44.0687 45.1083 43.2853 45.9849C44.3518 46.162 45.2886 46.3154 46.2839 46.4816C46.4593 45.4352 46.6255 44.4399 46.8063 43.3606C45.9479 43.503 45.5407 43.0118 45.1645 42.4274C43.4295 39.7282 41.6891 37.0326 39.9231 34.3535C39.7642 34.1125 39.4191 33.8513 39.1543 33.8477C36.7601 33.8093 34.3659 33.8203 31.9717 33.8349C31.7726 33.8349 31.4841 33.9189 31.3891 34.065C30.1564 35.9186 28.951 37.7887 27.6818 39.7428H27.6836ZM46.4374 48.9799C47.0126 49.904 47.5477 50.7916 48.112 51.659C48.4955 52.2489 48.4846 52.7822 48.081 53.3629C47.3925 54.3527 46.7259 55.359 46.0758 56.3744C45.7233 56.9259 45.2686 57.1706 44.602 57.1615C42.5493 57.1341 40.4966 57.1378 38.4457 57.1597C37.7791 57.167 37.1746 57.1012 36.8313 56.5315C36.183 57.1414 35.5584 57.7277 34.9631 58.2883C35.573 58.9147 36.172 59.5283 36.813 60.1876C37.1874 59.5265 37.8047 59.4754 38.4694 59.479C41.0006 59.4918 43.5318 59.4735 46.063 59.4955C46.5031 59.4991 46.7643 59.3603 47.0144 59.0042C48.3093 57.1597 49.6278 55.3334 50.9391 53.4999C51.4346 52.8071 51.4461 52.0973 50.9738 51.3705C50.1702 50.1359 49.3667 48.9032 48.5321 47.6212C48.1339 48.8539 48.0444 48.9124 46.4374 48.9836V48.9799Z" fill="#4CBF42"/>
</g>
<defs>
<clipPath id="clip0_5026_6630">
<rect width="70.1278" height="70" fill="white" transform="translate(0.5)"/>
</clipPath>
</defs>
</svg>
