<svg width="60" height="70" viewBox="0 0 60 70" fill="none" xmlns="http://www.w3.org/2000/svg">
<g clip-path="url(#clip0_5026_6618)">
<path d="M31.0458 0C31.7203 0.0847823 32.3967 0.160144 33.0674 0.258115C41.5249 1.50159 47.8289 5.92722 52.0605 13.2901C53.9559 16.5891 54.9281 20.2027 55.1391 24.0216C55.4782 30.1994 53.8033 35.7649 50.1652 40.7501C49.7771 41.2833 49.3588 41.8014 48.9066 42.28C48.5675 42.6398 48.5731 42.9149 48.8181 43.3369C52.2263 49.2039 55.6138 55.0821 59.0089 60.9566C59.2783 61.4219 59.5176 61.8515 59.1672 62.4073C58.6396 63.2494 58.1667 63.4567 57.2304 63.0893C55.0694 62.2415 52.9178 61.3767 50.7605 60.5195C50.1915 60.2934 49.6207 60.0692 48.9462 59.8035C48.8181 60.625 48.6862 61.3974 48.5769 62.1718C48.283 64.2235 47.9985 66.2752 47.7084 68.327C47.6726 68.5757 47.6387 68.8262 47.5689 69.0655C47.2939 70.0207 46.1578 70.2996 45.4663 69.5723C45.2666 69.3613 45.1197 69.0957 44.9708 68.8413C41.5701 62.9706 38.1694 57.0999 34.7857 51.2179C34.5389 50.7883 34.3241 50.6112 33.789 50.7092C30.961 51.2179 28.1237 51.1972 25.2957 50.6998C24.8077 50.6131 24.6193 50.7865 24.4008 51.1651C21.0151 57.0453 17.6144 62.916 14.2194 68.7904C13.8463 69.4348 13.4827 70.1225 12.5859 69.9849C11.625 69.838 11.5591 69.0429 11.4517 68.2761C11.0579 65.482 10.6434 62.6918 10.2271 59.8186C9.94069 59.9222 9.692 60.0051 9.44896 60.1012C7.01853 61.0696 4.58999 62.0418 2.15768 63.0083C1.94667 63.0912 1.73 63.1684 1.50957 63.2155C0.529864 63.4265 -0.219988 62.6447 0.0588517 61.6857C0.145518 61.3842 0.307546 61.0997 0.465807 60.8266C3.79869 55.0482 7.12592 49.266 10.489 43.5046C10.8281 42.9224 10.7508 42.589 10.3401 42.1029C5.51695 36.4093 3.44449 29.8038 4.42043 22.4334C5.68839 12.8398 10.9732 6.08171 19.7283 2.0555C22.2643 0.889272 24.9811 0.273187 27.7827 0.105507C27.9598 0.0942025 28.135 0.035797 28.3102 0C29.2221 0 30.1339 0 31.0458 0ZM52.6427 25.4271C52.5956 12.7644 42.4198 2.55289 29.7176 2.5284C17.0285 2.5039 6.75288 12.8963 6.77361 25.5779C6.79433 38.3932 16.9456 48.4728 29.7119 48.5124C42.3087 48.552 52.6917 38.0371 52.6446 25.4271H52.6427ZM55.0524 59.3871C55.0844 59.3476 55.1183 59.308 55.1504 59.2684C52.3262 54.385 49.502 49.5015 46.7249 44.6972C45.1611 45.7466 43.7274 46.845 42.1674 47.7192C40.5923 48.601 38.8929 49.2585 37.201 50.0366C39.9969 54.9106 42.8249 59.8355 45.651 64.7605C46.1182 62.5109 46.4498 60.3292 46.7758 58.1474C46.9623 56.9002 47.6782 56.4801 48.8595 56.9454C50.5533 57.6105 52.2433 58.2831 53.9352 58.9519C54.3063 59.0989 54.6794 59.2421 55.0505 59.3871H55.0524ZM12.6707 44.701C9.88982 49.511 7.06375 54.3963 4.14913 59.4324C4.53724 59.2986 4.75014 59.2364 4.9555 59.1554C6.83766 58.4112 8.71418 57.6576 10.5982 56.919C11.6571 56.5045 12.4107 56.9228 12.5897 58.0306C12.8289 59.5134 13.0437 60.9999 13.2717 62.4826C13.3866 63.2268 13.5072 63.9692 13.624 64.7134C13.673 64.7152 13.722 64.7171 13.771 64.719C16.5914 59.8016 19.4099 54.8843 22.1908 50.0347C20.4763 49.2472 18.7957 48.5972 17.2395 47.7249C15.6795 46.8507 14.2439 45.7542 12.6707 44.701Z" fill="#236924"/>
<path d="M52.6425 25.4272C52.6896 38.0371 42.3066 48.552 29.7098 48.5124C16.9435 48.4729 6.79224 38.3932 6.77152 25.5779C6.75079 12.8964 17.0264 2.50393 29.7155 2.52842C42.4177 2.55292 52.5935 12.7645 52.6406 25.4272H52.6425ZM29.7174 45.4019C40.7127 45.3793 49.53 36.56 49.5828 25.5346C49.6337 14.5845 40.6486 5.59566 29.6797 5.62769C18.6825 5.65972 9.8444 14.5072 9.82745 25.5044C9.8086 36.511 18.7202 45.4245 29.7192 45.4019H29.7174Z" fill="#4CBF42"/>
<path d="M29.8751 33.0161C28.4809 34.0278 27.1131 35.0452 25.7208 36.0287C24.2079 37.097 22.4294 36.6994 21.51 35.1112C21.1256 34.4461 21.0634 33.7358 21.2989 33.0048C21.7681 31.556 22.224 30.1015 22.7289 28.664C22.8929 28.2005 22.8458 27.9443 22.4181 27.6541C21.1558 26.7987 19.9104 25.9151 18.6952 24.9938C17.7381 24.2685 17.382 23.2548 17.642 22.0849C17.8794 21.0204 18.5708 20.3327 19.6297 20.0501C19.8878 19.9804 20.1685 19.9672 20.4379 19.9653C21.9188 19.9559 23.3997 19.9389 24.8805 19.9709C25.3497 19.9804 25.5607 19.8428 25.6944 19.3907C26.1353 17.9079 26.5875 16.4289 27.0981 14.9707C27.6538 13.3824 29.2327 12.6816 30.8077 13.2769C31.7347 13.6274 32.234 14.3753 32.526 15.2759C32.9688 16.6381 33.4059 18.004 33.8109 19.3756C33.9409 19.8127 34.1293 19.986 34.6154 19.9747C36.1415 19.9389 37.6676 19.954 39.1937 19.9709C40.5068 19.986 41.5035 20.7604 41.9199 22.0547C42.34 23.3585 42.0367 24.2892 40.8742 25.1408C39.6797 26.015 38.4796 26.8816 37.2606 27.7182C36.9121 27.9574 36.8518 28.1703 36.9874 28.5603C37.4735 29.9564 37.9125 31.3676 38.3873 32.7674C38.8074 34.0071 38.4777 35.2186 37.4811 36.0193C36.5296 36.7823 35.2654 36.8539 34.1745 36.1173C32.9499 35.2883 31.7724 34.3896 30.5722 33.521C30.3518 33.3609 30.1314 33.2045 29.8733 33.0218L29.8751 33.0161ZM23.4223 22.4146C22.533 22.4146 21.6456 22.3938 20.7582 22.4278C20.4963 22.4372 20.242 22.5954 19.982 22.6859C20.1327 22.8931 20.2439 23.1493 20.4379 23.3001C21.7643 24.3401 23.1058 25.3574 24.4434 26.3843C25.3402 27.0719 25.4137 27.3018 25.0727 28.3587C24.5433 30.0035 23.9988 31.6445 23.4863 33.2931C23.4147 33.5229 23.4863 33.7961 23.492 34.0486C23.7369 33.9789 24.0214 33.9676 24.2173 33.8281C25.6454 32.8108 27.0528 31.7651 28.4696 30.7326C29.3589 30.0864 29.7998 30.0864 30.6834 30.7308C32.0267 31.7086 33.3588 32.7034 34.7153 33.6642C34.9885 33.8583 35.3427 33.9355 35.6592 34.0674C35.6422 33.7339 35.6931 33.3797 35.597 33.0708C35.1147 31.507 34.5928 29.9545 34.086 28.3983C33.7525 27.3677 33.8674 27.0135 34.7586 26.3616C36.1924 25.3122 37.6318 24.2741 39.0599 23.2172C39.2445 23.0796 39.3689 22.8592 39.5196 22.6783C39.2841 22.5898 39.0486 22.4278 38.8131 22.4259C37.1042 22.4033 35.3954 22.4146 33.6885 22.4146C32.4751 22.4146 32.1228 22.1602 31.7517 21.0147C31.2467 19.4566 30.755 17.8966 30.2331 16.3442C30.1389 16.0653 29.9298 15.826 29.7715 15.5679C29.602 15.8336 29.3721 16.0785 29.2741 16.3686C28.7428 17.9418 28.2473 19.5263 27.7349 21.1033C27.392 22.1564 27.0434 22.4108 25.9507 22.4127C25.1085 22.4146 24.2644 22.4127 23.4223 22.4127V22.4146Z" fill="#4CBF42"/>
<path d="M23.4207 22.4145C24.2629 22.4145 25.107 22.4164 25.9491 22.4145C27.0419 22.4107 27.3904 22.1583 27.7333 21.1051C28.2458 19.5263 28.7413 17.9418 29.2726 16.3705C29.3706 16.0803 29.6004 15.8354 29.77 15.5698C29.9264 15.8279 30.1374 16.0672 30.2316 16.346C30.7535 17.8984 31.2452 19.4584 31.7501 21.0166C32.1213 22.1621 32.4717 22.4164 33.6869 22.4164C35.3958 22.4164 37.1046 22.407 38.8116 22.4277C39.0489 22.4315 39.2826 22.5916 39.5181 22.6802C39.3655 22.861 39.243 23.0815 39.0584 23.219C37.6303 24.276 36.1908 25.3141 34.7571 26.3635C33.8659 27.0154 33.751 27.3696 34.0845 28.4001C34.5894 29.9564 35.1113 31.5088 35.5955 33.0726C35.6916 33.3816 35.6407 33.7358 35.6576 34.0693C35.3411 33.9374 34.9869 33.8601 34.7137 33.6661C33.3572 32.7052 32.0252 31.7104 30.6819 30.7326C29.7983 30.0883 29.3574 30.0883 28.4681 30.7345C27.0494 31.7651 25.642 32.8107 24.2158 33.83C24.0218 33.9694 23.7354 33.9788 23.4905 34.0504C23.4848 33.7979 23.4132 33.5248 23.4848 33.2949C23.9973 31.6445 24.5418 30.0054 25.0712 28.3606C25.4122 27.3036 25.3368 27.0757 24.4419 26.3861C23.1061 25.3593 21.7628 24.3419 20.4364 23.3019C20.2424 23.1493 20.1312 22.8949 19.9805 22.6877C20.2386 22.5973 20.4948 22.439 20.7567 22.4296C21.6441 22.3976 22.5334 22.4164 23.4207 22.4164V22.4145Z" fill="#4CBF42"/>
</g>
<defs>
<clipPath id="clip0_5026_6618">
<rect width="59.34" height="70" fill="white"/>
</clipPath>
</defs>
</svg>
