<svg width="68" height="70" viewBox="0 0 68 70" fill="none" xmlns="http://www.w3.org/2000/svg">
<path d="M25.2402 70C24.0698 69.8633 22.8977 69.7466 21.731 69.5862C17.5456 69.0102 13.5662 67.8472 10.0152 65.4537C6.88704 63.3446 4.65397 60.4935 3.15371 57.0628C1.07194 52.3013 0.39746 47.2737 0.512304 42.1222C0.550585 40.4177 0.694595 38.7133 0.827668 37.0107C0.92246 35.7875 1.17402 35.4922 2.38626 35.3555C9.03808 34.6081 15.5878 34.867 21.9006 37.4099C27.6081 39.7105 31.3615 43.8539 33.4269 49.6034C33.7021 50.3672 33.9355 51.1456 34.2527 52.1136C34.3803 51.7034 34.4568 51.4628 34.5297 51.2203C35.8441 46.8453 37.9969 43.0099 41.6865 40.1899C44.6889 37.8966 48.1305 36.5878 51.7928 35.8149C56.0784 34.9107 60.4042 34.8086 64.7519 35.2006C65.2951 35.2498 65.8347 35.3373 66.3761 35.3865C67.129 35.4539 67.5282 35.875 67.6102 36.6042C67.725 37.6214 67.8691 38.6404 67.9201 39.6612C68.1425 44.0472 67.9657 48.4058 66.8446 52.6805C65.5594 57.5805 63.3154 61.8935 59.1391 64.9761C56.33 67.0505 53.1763 68.3594 49.7693 69.0193C47.8115 69.3985 45.8191 69.5953 43.843 69.8761C43.6425 69.9052 43.4474 69.9563 43.2487 69.9964H38.336C37.6433 69.918 36.9415 69.887 36.2597 69.7539C34.1998 69.3547 32.18 69.7886 30.1493 69.9964H25.2365L25.2402 70ZM25.9857 58.9076C26.0404 58.7545 26.0787 58.6961 26.0787 58.6396C26.0823 53.4224 26.086 48.2052 26.0787 42.9899C26.0787 42.8276 26.0222 42.6052 25.9092 42.5104C24.5803 41.3966 23.1256 40.4925 21.4321 39.787V40.5891C21.4321 44.4391 21.5123 48.2909 21.3938 52.1373C21.3446 53.725 21.7183 54.8953 22.9597 55.9107C24.0389 56.793 24.954 57.874 25.9857 58.9094V58.9076ZM42.4066 58.8037C42.4631 58.8183 42.5178 58.8328 42.5743 58.8456C43.9214 57.4912 45.2612 56.1276 46.6248 54.7878C46.942 54.4761 47.0732 54.1644 47.0714 53.7177C47.0568 49.299 47.0623 44.8784 47.0623 40.4597V39.787C45.5274 40.425 44.2076 41.2417 42.9534 42.186C42.5469 42.4922 42.3956 42.8076 42.3974 43.3198C42.4175 48.2636 42.4102 53.2073 42.4102 58.1511V58.8037H42.4066ZM24.4107 60.6685C24.161 60.3951 24.0206 60.2292 23.8693 60.0761C22.6662 58.8675 21.4467 57.6735 20.2618 56.4466C19.93 56.1039 19.5909 55.9854 19.1261 55.9873C14.7639 56.0019 10.3998 55.9964 6.03756 55.9964H5.27376C5.91907 57.544 6.73574 58.8657 7.68183 60.118C7.98261 60.5172 8.2998 60.6849 8.81569 60.6831C13.7467 60.6612 18.6777 60.6703 23.6087 60.6703H24.4126L24.4107 60.6685ZM63.1987 56.0565C63.0292 56.0274 62.9417 56 62.8524 56C58.2623 55.9964 53.6722 55.9909 49.0821 56.011C48.8287 56.011 48.5243 56.186 48.3329 56.3719C47.2391 57.4328 46.1764 58.5266 45.0935 59.5966C44.78 59.9065 44.4282 60.1763 43.9834 60.5573C44.2969 60.6357 44.3571 60.663 44.4191 60.663C49.5998 60.6649 54.7805 60.6685 59.9612 60.6558C60.1599 60.6558 60.4224 60.5573 60.5446 60.4115C61.6292 59.119 62.5042 57.6917 63.2006 56.0565H63.1987ZM32.9238 65.8511C32.9602 65.3607 33.0113 65.0472 33.0021 64.7354C32.9183 62.1433 32.9584 59.5383 32.6995 56.9625C32.3331 53.3131 31.3488 49.8131 29.4365 46.6339C29.1667 46.1855 28.8568 45.7625 28.5232 45.2649C28.4521 45.4381 28.4212 45.4782 28.4212 45.5164C28.4175 50.6644 28.4139 55.8141 28.4212 60.962C28.4212 61.1479 28.485 61.3867 28.6089 61.5125C29.9925 62.9253 31.3925 64.3198 32.9238 65.8529V65.8511ZM35.6818 65.7417C36.9797 64.4401 38.2667 63.1258 39.5829 61.8443C39.9347 61.5016 40.0915 61.1607 40.0896 60.6576C40.0696 55.7831 40.0787 50.9068 40.0787 46.0323V45.3834C40.0058 45.3743 39.9329 45.3651 39.8618 45.356C35.7019 51.543 35.2443 58.5266 35.6836 65.7435L35.6818 65.7417ZM10.8118 63.0365C14.0456 66.2156 25.849 68.7495 31.2047 67.4151C29.8594 66.0716 28.5615 64.7409 27.218 63.4576C26.9592 63.2097 26.5235 63.0219 26.1698 63.0201C21.2826 62.9909 16.3954 63 11.5081 63.0018C11.293 63.0018 11.0779 63.0219 10.8136 63.0347L10.8118 63.0365ZM37.3079 67.3823C37.3407 67.4388 37.3735 67.4935 37.4045 67.55C39.3331 67.55 41.2654 67.6175 43.1904 67.5354C46.7943 67.3841 50.3162 66.7625 53.6704 65.368C55.0868 64.7792 56.4394 64.0774 57.8284 63.0018H56.8987C52.604 63.0018 48.3055 63.0875 44.0144 62.9599C42.3245 62.9089 41.0868 63.33 40.0222 64.6443C39.2165 65.6396 38.2175 66.4763 37.306 67.3841L37.3079 67.3823ZM14.4576 37.7618C14.4576 40.3357 14.5633 42.7547 14.4212 45.1573C14.3264 46.7542 14.7566 47.9136 15.9925 48.9271C17.0699 49.8112 17.9886 50.8867 19.0678 51.9677V38.8172C17.5639 38.4727 16.0654 38.13 14.4576 37.7636V37.7618ZM49.4339 38.8118V51.9659C50.9014 50.493 52.2904 49.1222 53.6394 47.7167C53.8581 47.4888 54.0094 47.0969 54.0149 46.7761C54.0495 44.7946 54.0313 42.8131 54.0313 40.8315V37.7672C52.4362 38.13 50.925 38.4727 49.4321 38.8118H49.4339ZM3.23209 48.9818C3.58027 50.4474 3.91387 51.7654 4.19642 53.0961C4.29303 53.5537 4.50996 53.6649 4.94199 53.6631C8.87402 53.6503 12.8079 53.6558 16.7399 53.6521C16.9222 53.6521 17.1045 53.6157 17.4162 53.581C15.8868 52.0589 14.4777 50.637 13.0376 49.2461C12.8571 49.0711 12.5144 48.9946 12.2464 48.9927C10.0863 48.9727 7.92793 48.9818 5.76777 48.9818C4.97663 48.9818 4.18548 48.9818 3.23209 48.9818ZM65.2368 49.0912C65.0618 49.031 64.9998 48.9909 64.9378 48.9909C61.9592 48.9854 58.9805 48.98 56.0019 48.9909C55.8232 48.9909 55.6008 49.0912 55.4714 49.2206C54.0641 50.6133 52.6714 52.0206 51.2769 53.4261C51.2404 53.4625 51.2459 53.5409 51.2204 53.6539C52.0935 53.6539 52.9321 53.6539 53.7706 53.6539C57.0227 53.6539 60.2748 53.6612 63.525 53.6394C63.762 53.6394 64.1631 53.4735 64.2068 53.3094C64.586 51.9131 64.9013 50.4985 65.2349 49.0912H65.2368ZM4.80892 37.4555C7.25709 39.911 9.68157 42.3446 12.0951 44.7672V37.4555H4.80892ZM56.3829 44.7271C58.7909 42.3154 61.2191 39.8836 63.6344 37.4646H56.3829V44.7271ZM2.95866 39.2638V46.5828H10.2485C7.84043 44.1638 5.436 41.7503 2.95866 39.2638ZM58.2422 46.5956H65.543V39.2638C63.0638 41.7539 60.6594 44.1675 58.2422 46.5956Z" fill="#4CBF42"/>
<path d="M35.6106 0C36.657 0.189583 37.7271 0.295312 38.7461 0.583333C46.1161 2.65963 50.7955 7.45026 52.4617 14.9151C54.6237 24.6094 48.433 34.3018 38.7315 36.7609C28.6909 39.3057 18.5317 33.1497 16.1455 22.8247C14.5633 15.9779 16.4864 9.97864 21.5377 5.08047C24.5747 2.13099 28.2789 0.525 32.4916 0.10026C32.6229 0.0875 32.7505 0.0346354 32.8817 0C33.7914 0 34.701 0 35.6106 0ZM26.0823 4.65755C26.414 4.65755 26.6273 4.65755 26.8424 4.65755C28.4794 4.65755 30.1164 4.64114 31.7534 4.66302C33.6619 4.68854 35.1367 5.92812 35.3481 7.64896C35.6125 9.81458 34.1523 11.5828 31.9685 11.632C29.6953 11.6849 27.4203 11.6375 25.1471 11.6575C24.2885 11.6648 23.7562 12.1643 23.7781 12.857C23.7981 13.5333 24.3067 13.9562 25.138 13.9818C26.0239 14.0109 26.9172 13.969 27.7922 14.0729C29.8047 14.3135 31.1554 16.3898 30.6304 18.3513C30.182 20.0338 28.8495 20.9872 26.8843 20.9945C24.2229 21.0055 21.5633 20.9982 18.9018 20.9982C18.663 20.9982 18.4224 20.9982 18.138 20.9982C18.7049 24.5656 20.1815 27.5516 22.6205 30.0544C22.7718 30.2094 23.0471 30.3206 23.2659 30.3206C27.6099 30.3351 31.9521 30.3351 36.2961 30.3279C37.1784 30.3279 37.6997 29.8867 37.7179 29.1867C37.7362 28.4539 37.2075 28.0219 36.2851 28C35.4229 27.9799 34.5497 28.0273 33.7002 27.9107C31.5784 27.619 30.2841 25.4734 30.9385 23.4299C31.4435 21.8513 32.714 21.0036 34.6281 21C39.5846 20.9927 44.5429 20.9982 49.4994 20.9982C49.7656 20.9982 50.0336 20.9982 50.3781 20.9982C50.431 20.1924 50.4802 19.4596 50.533 18.6575C49.5833 18.6575 48.7448 18.6703 47.908 18.6557C46.0323 18.6229 45.0151 17.7297 44.7435 15.8703C44.6705 15.3763 44.4299 15.1484 43.9286 15.163C43.3836 15.1776 42.8349 15.1885 42.2916 15.1539C40.0093 15.0081 38.4963 13.0047 39.0159 10.8336C39.3713 9.34791 40.651 8.25052 42.1932 8.2013C43.6351 8.15573 45.0807 8.19219 46.5974 8.19219C42.0547 2.29323 32.6302 0.432031 26.0823 4.65755ZM49.7802 23.3971C49.6708 23.3734 49.6052 23.3443 49.5395 23.3443C44.4901 23.3406 39.4424 23.3388 34.3929 23.3461C34.1523 23.3461 33.888 23.4026 33.6765 23.5138C33.1989 23.7672 33.0367 24.2029 33.1369 24.7279C33.2609 25.3732 33.7294 25.6284 34.3164 25.6575C35.1786 25.6995 36.0463 25.6503 36.9067 25.7068C38.788 25.8307 40.239 27.6154 40.0221 29.4838C39.7961 31.4234 38.3815 32.6539 36.327 32.663C33.1661 32.6758 30.0052 32.6667 26.8442 32.6667C26.6273 32.6667 26.4122 32.6667 26.0859 32.6667C34.4039 37.9568 46.6794 33.8661 49.7783 23.3971H49.7802ZM17.9922 18.6521C21.1294 18.6521 24.1737 18.6667 27.2179 18.6411C27.9635 18.6357 28.3955 18.1526 28.3955 17.4945C28.3955 16.8419 27.9672 16.3862 27.2161 16.3406C26.3557 16.2896 25.488 16.3406 24.6276 16.2786C22.8685 16.1547 21.5304 14.731 21.4448 12.9482C21.3627 11.2565 22.6315 9.6888 24.3268 9.40989C24.706 9.34791 25.0942 9.32239 25.4789 9.32239C27.5935 9.31328 29.7062 9.32604 31.8208 9.31146C32.57 9.30599 33.0221 8.87396 33.0494 8.21771C33.0786 7.56875 32.6448 7.09661 31.9265 7.00182C31.8153 6.98724 31.7005 6.98906 31.5856 6.98906C28.8349 6.98906 26.0841 6.97812 23.3351 7.00547C23.0635 7.00729 22.7281 7.17318 22.533 7.37187C21.1914 8.72448 20.1396 10.2867 19.3721 12.0312C18.457 14.1112 17.9466 16.2805 17.9922 18.6521ZM50.2961 16.3023C50.1375 14.618 49.3718 12.25 48.506 10.85C48.4021 10.6823 48.1286 10.5273 47.9299 10.5237C46.1143 10.5 44.2968 10.5 42.4794 10.5182C41.7539 10.5255 41.269 10.9849 41.238 11.6174C41.2052 12.2628 41.7028 12.7768 42.4502 12.8315C42.8349 12.8607 43.2213 12.8406 43.6078 12.8406C45.7406 12.8424 46.6484 13.6081 47.0731 15.6953C47.1187 15.9232 47.3976 16.2622 47.5872 16.275C48.4841 16.337 49.3882 16.3023 50.2942 16.3023H50.2961Z" fill="#236924"/>
<path d="M8.58223 16.3752V18.6101H6.3291V16.3752H8.58223Z" fill="#236924"/>
<path d="M13.2234 18.6138H10.9849V16.3716H13.2234V18.6138Z" fill="#236924"/>
<path d="M55.2417 18.6138V16.3716H57.4766V18.6138H55.2417Z" fill="#236924"/>
<path d="M62.1576 16.3734V18.6138H59.9009V16.3734H62.1576Z" fill="#236924"/>
<path d="M6.33301 27.9526V25.725H8.58066V27.9526H6.33301Z" fill="#236924"/>
<path d="M59.8921 27.9435V25.7323H62.1489V27.9435H59.8921Z" fill="#236924"/>
<path d="M8.58252 30.3789V32.612H6.34033V30.3789H8.58252Z" fill="#236924"/>
<path d="M59.9048 32.621V30.3898H62.1452V32.621H59.9048Z" fill="#236924"/>
<path d="M6.3291 23.2951V21.0456H8.56582V23.2951H6.3291Z" fill="#236924"/>
<path d="M62.167 21.0383V23.275H59.9175V21.0383H62.167Z" fill="#236924"/>
</svg>
