<svg width="24" height="29" viewBox="0 0 24 29" fill="none" xmlns="http://www.w3.org/2000/svg">
<path d="M4.50853 13.0415C3.26852 13.0415 2.30407 12.077 2.30407 10.837C2.30407 9.63147 3.26852 8.63258 4.50853 8.63258C5.71409 8.63258 6.71298 9.63147 6.71298 10.837C6.71298 12.077 5.71409 13.0415 4.50853 13.0415ZM19.9397 13.0415C18.6997 13.0415 17.7353 12.077 17.7353 10.837C17.7353 9.63147 18.6997 8.63258 19.9397 8.63258C21.1453 8.63258 22.1442 9.63147 22.1442 10.837C22.1442 12.077 21.1453 13.0415 19.9397 13.0415ZM21.0419 14.1437C22.2475 14.1437 23.2464 15.1426 23.2464 16.3482V17.4504C23.2464 18.0704 22.7297 18.5526 22.1442 18.5526H19.8708C19.6297 16.9337 18.6653 15.5559 17.253 14.7982C17.6664 14.4193 18.2175 14.1437 18.8375 14.1437H21.0419ZM12.2241 14.1437C10.0886 14.1437 8.36633 12.4215 8.36633 10.2859C8.36633 8.1848 10.0886 6.42812 12.2241 6.42812C14.3252 6.42812 16.0819 8.1848 16.0819 10.2859C16.0819 12.4215 14.3252 14.1437 12.2241 14.1437ZM14.8419 15.2459C17.0464 15.2459 18.8375 17.0371 18.8375 19.2415V20.206C18.8375 21.136 18.0797 21.8593 17.1841 21.8593H7.2641C6.33409 21.8593 5.61076 21.136 5.61076 20.206V19.2415C5.61076 17.0371 7.36743 15.2459 9.57189 15.2459H9.84744C10.5708 15.5904 11.363 15.7971 12.2241 15.7971C13.0508 15.7971 13.843 15.5904 14.5664 15.2459H14.8419ZM7.16076 14.7982C5.74854 15.5559 4.78409 16.9337 4.54297 18.5526H2.30407C1.68407 18.5526 1.20185 18.0704 1.20185 17.4504V16.3482C1.20185 15.1426 2.1663 14.1437 3.4063 14.1437H5.61076C6.19632 14.1437 6.74743 14.4193 7.16076 14.7982Z" fill="#0D9488"/>
</svg>
