<svg width="156" height="52" viewBox="0 0 156 52" fill="none" xmlns="http://www.w3.org/2000/svg">
<rect width="156" height="52" rx="7.8" fill="white"/>
<path d="M23.1464 25.3002L10.5166 39.0077C10.5178 39.0101 10.5178 39.0137 10.519 39.0162C10.9069 40.5046 12.2354 41.6 13.8131 41.6C14.4442 41.6 15.0361 41.4253 15.5438 41.1196L15.5842 41.0953L29.7999 32.7071L23.1464 25.3002Z" fill="#EA4335"/>
<path d="M35.9233 22.9661L35.9115 22.9576L29.7739 19.3196L22.8594 25.6117L29.7988 32.7057L35.9031 29.1041C36.9731 28.5122 37.7003 27.3585 37.7003 26.029C37.7003 24.7068 36.9838 23.5593 35.9233 22.9661Z" fill="#FBBC04"/>
<path d="M10.5162 12.9914C10.4402 13.2776 10.3999 13.5785 10.3999 13.889V38.1113C10.3999 38.4218 10.4402 38.7227 10.5173 39.0078L23.5801 25.6508L10.5162 12.9914Z" fill="#4285F4"/>
<path d="M23.2396 25.9998L29.7757 19.3171L15.5766 10.8985C15.0606 10.5819 14.458 10.3999 13.8138 10.3999C12.2361 10.3999 10.9052 11.4977 10.5173 12.9874C10.5173 12.9886 10.5161 12.9898 10.5161 12.991L23.2396 25.9998Z" fill="#34A853"/>
<path d="M51.5838 21.604C50.9511 21.604 50.4138 21.5693 49.9718 21.5C49.5298 21.422 49.1658 21.2877 48.8798 21.097C48.6025 20.9063 48.3815 20.642 48.2168 20.304C48.0608 19.9573 47.9481 19.5197 47.8788 18.991C47.8181 18.4537 47.7878 17.7993 47.7878 17.028C47.7878 16.2567 47.8181 15.6067 47.8788 15.078C47.9481 14.5407 48.0651 14.103 48.2298 13.765C48.3945 13.4183 48.6198 13.1497 48.9058 12.959C49.1918 12.7683 49.5515 12.6383 49.9848 12.569C50.4268 12.491 50.9598 12.452 51.5838 12.452C51.8785 12.452 52.1948 12.465 52.5328 12.491C52.8708 12.517 53.2001 12.5473 53.5208 12.582C53.8501 12.6167 54.1448 12.66 54.4048 12.712V13.622C54.1275 13.5787 53.8458 13.544 53.5598 13.518C53.2738 13.4833 53.0051 13.4573 52.7538 13.44C52.5111 13.4227 52.3031 13.414 52.1298 13.414C51.5925 13.414 51.1331 13.427 50.7518 13.453C50.3791 13.479 50.0715 13.5483 49.8288 13.661C49.5861 13.7737 49.3998 13.96 49.2698 14.22C49.1398 14.4713 49.0445 14.8223 48.9838 15.273C48.9318 15.7237 48.9058 16.3087 48.9058 17.028C48.9058 17.6607 48.9231 18.1937 48.9578 18.627C48.9925 19.0517 49.0618 19.3983 49.1658 19.667C49.2785 19.9357 49.4301 20.1437 49.6208 20.291C49.8201 20.4383 50.0801 20.538 50.4008 20.59C50.7301 20.6333 51.1331 20.655 51.6098 20.655C51.7918 20.655 51.9911 20.6507 52.2078 20.642C52.4245 20.6333 52.6368 20.6203 52.8448 20.603C53.0528 20.5857 53.2261 20.5683 53.3648 20.551V17.639H51.3368V16.69H54.4438V21.344C54.1578 21.396 53.8415 21.4437 53.4948 21.487C53.1568 21.5217 52.8188 21.5477 52.4808 21.565C52.1515 21.591 51.8525 21.604 51.5838 21.604ZM56.885 21.5V12.556H62.696V13.518H58.003V16.495H62.085V17.47H58.003V20.538H62.696V21.5H56.885ZM66.629 21.5V13.544H63.808V12.556H70.581V13.544H67.747V21.5H66.629ZM75.1408 21.5V12.556H76.2588V21.5H75.1408ZM80.7715 21.5V13.544H77.9505V12.556H84.7235V13.544H81.8895V21.5H80.7715ZM92.6374 21.604C91.9441 21.604 91.3677 21.5693 90.9084 21.5C90.4577 21.422 90.0981 21.2877 89.8294 21.097C89.5694 20.9063 89.3787 20.642 89.2574 20.304C89.1361 19.9573 89.0581 19.5197 89.0234 18.991C88.9887 18.4537 88.9714 17.7993 88.9714 17.028C88.9714 16.2567 88.9887 15.6067 89.0234 15.078C89.0581 14.5407 89.1361 14.103 89.2574 13.765C89.3787 13.4183 89.5694 13.1497 89.8294 12.959C90.0981 12.7683 90.4577 12.6383 90.9084 12.569C91.3677 12.491 91.9441 12.452 92.6374 12.452C93.3307 12.452 93.9027 12.491 94.3534 12.569C94.8127 12.6383 95.1724 12.7683 95.4324 12.959C95.7011 13.1497 95.8961 13.4183 96.0174 13.765C96.1387 14.103 96.2167 14.5407 96.2514 15.078C96.2861 15.6067 96.3034 16.2567 96.3034 17.028C96.3034 17.7993 96.2861 18.4537 96.2514 18.991C96.2167 19.5197 96.1387 19.9573 96.0174 20.304C95.8961 20.642 95.7011 20.9063 95.4324 21.097C95.1724 21.2877 94.8127 21.422 94.3534 21.5C93.9027 21.5693 93.3307 21.604 92.6374 21.604ZM92.6374 20.642C93.1141 20.642 93.5084 20.629 93.8204 20.603C94.1324 20.5683 94.3794 20.4947 94.5614 20.382C94.7434 20.2693 94.8821 20.0873 94.9774 19.836C95.0727 19.576 95.1291 19.2207 95.1464 18.77C95.1724 18.3193 95.1854 17.7387 95.1854 17.028C95.1854 16.3173 95.1724 15.7367 95.1464 15.286C95.1291 14.8353 95.0727 14.4843 94.9774 14.233C94.8821 13.973 94.7434 13.7867 94.5614 13.674C94.3794 13.5613 94.1324 13.492 93.8204 13.466C93.5084 13.4313 93.1141 13.414 92.6374 13.414C92.1607 13.414 91.7664 13.4313 91.4544 13.466C91.1511 13.492 90.9041 13.5613 90.7134 13.674C90.5314 13.7867 90.3927 13.973 90.2974 14.233C90.2107 14.4843 90.1544 14.8353 90.1284 15.286C90.1024 15.7367 90.0894 16.3173 90.0894 17.028C90.0894 17.7387 90.1024 18.3193 90.1284 18.77C90.1544 19.2207 90.2107 19.576 90.2974 19.836C90.3927 20.0873 90.5314 20.2693 90.7134 20.382C90.9041 20.4947 91.1511 20.5683 91.4544 20.603C91.7664 20.629 92.1607 20.642 92.6374 20.642ZM98.6018 21.5V12.556H99.7458L104.387 19.407H104.439V12.556H105.518V21.5H104.439L99.7328 14.519H99.6808V21.5H98.6018Z" fill="black"/>
<path d="M121.573 45.2326H123.691V30.9176H121.573V45.2326ZM140.645 36.074L138.218 42.2805H138.145L135.626 36.074H133.345L137.123 44.7482L134.97 49.5737H137.177L143 36.074H140.645ZM128.637 43.6065C127.943 43.6065 126.976 43.2573 126.976 42.3904C126.976 41.2865 128.18 40.8629 129.22 40.8629C130.151 40.8629 130.59 41.0655 131.155 41.3415C130.991 42.6675 129.859 43.6065 128.637 43.6065ZM128.893 35.7614C127.359 35.7614 125.771 36.4427 125.115 37.9531L126.994 38.7444C127.396 37.9531 128.144 37.6943 128.929 37.6943C130.024 37.6943 131.137 38.3574 131.155 39.5368V39.6834C130.772 39.4624 129.951 39.1315 128.947 39.1315C126.921 39.1315 124.858 40.2548 124.858 42.3538C124.858 44.2695 126.52 45.504 128.381 45.504C129.805 45.504 130.59 44.8593 131.083 44.1035H131.155V45.2085H133.199V39.72C133.199 37.179 131.32 35.7614 128.893 35.7614ZM115.807 37.8169H112.795V32.9101H115.807C117.39 32.9101 118.288 34.2327 118.288 35.3629C118.288 36.4725 117.39 37.8169 115.807 37.8169ZM115.752 30.9176H110.679V45.2326H112.795V39.8094H115.752C118.099 39.8094 120.406 38.094 120.406 35.3629C120.406 32.6318 118.099 30.9176 115.752 30.9176ZM88.0856 43.6088C86.6229 43.6088 85.3985 42.3732 85.3985 40.6762C85.3985 38.9608 86.6229 37.7058 88.0856 37.7058C89.5301 37.7058 90.6626 38.9608 90.6626 40.6762C90.6626 42.3732 89.5301 43.6088 88.0856 43.6088ZM90.5174 36.8756H90.4436C89.9682 36.3042 89.0547 35.7877 87.9029 35.7877C85.4893 35.7877 83.2776 37.9268 83.2776 40.6762C83.2776 43.4061 85.4893 45.528 87.9029 45.528C89.0547 45.528 89.9682 45.0116 90.4436 44.4207H90.5174V45.1226C90.5174 46.9857 89.5301 47.982 87.9392 47.982C86.6411 47.982 85.8365 47.0407 85.5074 46.2471L83.6612 47.0224C84.1911 48.3141 85.5993 49.9 87.9392 49.9C90.4255 49.9 92.5282 48.424 92.5282 44.8272V36.082H90.5174V36.8756ZM93.9909 45.2326H96.1117V30.9165H93.9909V45.2326ZM99.2368 40.5102C99.1824 38.6287 100.681 37.6692 101.759 37.6692C102.601 37.6692 103.314 38.0928 103.551 38.702L99.2368 40.5102ZM105.818 38.8864C105.417 37.7985 104.191 35.7877 101.687 35.7877C99.2005 35.7877 97.1353 37.7608 97.1353 40.6579C97.1353 43.3878 99.1824 45.528 101.924 45.528C104.137 45.528 105.417 44.163 105.947 43.3695L104.301 42.2622C103.753 43.0741 103.003 43.6088 101.924 43.6088C100.846 43.6088 100.078 43.1107 99.5841 42.1339L106.037 39.4395L105.818 38.8864ZM54.4049 37.2821V39.3479H59.3037C59.1573 40.5102 58.7737 41.3587 58.1893 41.9484C57.4756 42.6687 56.3601 43.4622 54.4049 43.4622C51.3876 43.4622 49.0296 41.0083 49.0296 37.9646C49.0296 34.9198 51.3876 32.4669 54.4049 32.4669C56.0322 32.4669 57.2203 33.1128 58.0974 33.943L59.542 32.4853C58.3164 31.3047 56.6903 30.4 54.4049 30.4C50.2733 30.4 46.7998 33.7953 46.7998 37.9646C46.7998 42.1339 50.2733 45.528 54.4049 45.528C56.6347 45.528 58.3164 44.7894 59.6328 43.4061C60.9865 42.0412 61.4064 40.1231 61.4064 38.5726C61.4064 38.0928 61.3701 37.6508 61.2963 37.2821H54.4049ZM66.9769 43.6088C65.5142 43.6088 64.2523 42.3916 64.2523 40.6579C64.2523 38.9047 65.5142 37.7058 66.9769 37.7058C68.4384 37.7058 69.7003 38.9047 69.7003 40.6579C69.7003 42.3916 68.4384 43.6088 66.9769 43.6088ZM66.9769 35.7877C64.3068 35.7877 62.1315 37.8352 62.1315 40.6579C62.1315 43.4622 64.3068 45.528 66.9769 45.528C69.6458 45.528 71.8212 43.4622 71.8212 40.6579C71.8212 37.8352 69.6458 35.7877 66.9769 35.7877ZM77.5449 43.6088C76.0822 43.6088 74.8203 42.3916 74.8203 40.6579C74.8203 38.9047 76.0822 37.7058 77.5449 37.7058C79.0076 37.7058 80.2683 38.9047 80.2683 40.6579C80.2683 42.3916 79.0076 43.6088 77.5449 43.6088ZM77.5449 35.7877C74.8759 35.7877 72.7006 37.8352 72.7006 40.6579C72.7006 43.4622 74.8759 45.528 77.5449 45.528C80.2138 45.528 82.3891 43.4622 82.3891 40.6579C82.3891 37.8352 80.2138 35.7877 77.5449 35.7877Z" fill="black"/>
</svg>
