<svg width="35" height="30" viewBox="0 0 35 30" fill="none" xmlns="http://www.w3.org/2000/svg">
<g clip-path="url(#clip0_5118_2163)">
<path d="M33.8186 13.103C33.6171 13.3287 33.3536 13.515 33.0481 13.6476C32.7426 13.7801 32.4031 13.8556 32.0555 13.8681H31.9563C31.3341 13.8691 30.7349 13.6811 30.281 13.3426C29.8271 13.004 29.5527 12.5404 29.5138 12.0464C29.5188 12.004 29.5188 11.9613 29.5138 11.9189L29.4299 11.5849C29.2238 10.7105 28.6132 8.20254 26.789 0.782013H28.4834C28.9981 0.78309 29.4986 0.915943 29.911 1.16092C30.3234 1.40589 30.6257 1.74997 30.7732 2.14224L34.2079 11.4877C34.2975 11.7631 34.3091 12.0509 34.2418 12.3302C34.1745 12.6096 34.0299 12.8735 33.8186 13.103ZM27.2164 12.1071C27.161 12.5898 26.8803 13.0384 26.4295 13.3644C25.9788 13.6904 25.3908 13.8701 24.7816 13.8681C24.4556 13.8666 24.1332 13.8134 23.8333 13.7118C23.5333 13.6102 23.2618 13.4621 23.0345 13.2762C22.8072 13.0902 22.6287 12.8702 22.5093 12.6288C22.3899 12.3875 22.3321 12.1296 22.3392 11.8703L21.4996 0.739506H24.4381L27.2164 12.1071ZM20.0494 11.9492C20.0555 12.4646 19.804 12.9608 19.3502 13.3286C18.8965 13.6964 18.2776 13.9058 17.6299 13.9106C16.9821 13.9155 16.3584 13.7154 15.8961 13.3544C15.4338 12.9934 15.1706 12.501 15.1645 11.9857L16.0575 0.739506H19.2022L20.0494 11.9492ZM13.7678 0.739506L12.8747 11.9249C12.8549 12.4225 12.5957 12.8951 12.1507 13.2451C11.7057 13.5951 11.1089 13.7959 10.4832 13.8061C9.85759 13.8162 9.25094 13.6349 8.78842 13.2995C8.3259 12.9642 8.04279 12.5004 7.99751 12.0039L10.7453 0.739506H13.7678ZM8.41731 0.739506L5.723 11.7549C5.71542 11.8114 5.71542 11.8684 5.723 11.9249C5.723 12.4403 5.46567 12.9346 5.00763 13.299C4.54958 13.6634 3.92834 13.8681 3.28057 13.8681H3.17371C2.82738 13.8547 2.48941 13.7788 2.18531 13.6463C1.88121 13.5137 1.61891 13.328 1.41821 13.103C1.20409 12.8665 1.0605 12.5943 0.998347 12.3071C0.93619 12.0198 0.957096 11.7251 1.05948 11.4452L4.49415 2.09973C4.63948 1.70644 4.94122 1.36126 5.35409 1.116C5.76696 0.870736 6.26867 0.73863 6.78393 0.739506H8.41731Z" fill="white"/>
<path d="M31.9544 15.9935C31.4831 15.9943 31.0161 15.921 30.5804 15.7778C30.1448 15.6347 29.7489 15.4245 29.4156 15.1593C29.0823 14.8941 28.8181 14.5792 28.6381 14.2325C28.4582 13.8859 28.3661 13.5144 28.3671 13.1394C28.3671 13.8963 27.9892 14.6223 27.3164 15.1575C26.6437 15.6928 25.7312 15.9935 24.7798 15.9935C23.8284 15.9935 22.9159 15.6928 22.2432 15.1575C21.5704 14.6223 21.1925 13.8963 21.1925 13.1394C21.1925 13.8963 20.8145 14.6223 20.1418 15.1575C19.469 15.6928 18.5566 15.9935 17.6052 15.9935C16.6537 15.9935 15.7413 15.6928 15.0685 15.1575C14.3958 14.6223 14.0178 13.8963 14.0178 13.1394C14.0402 13.5249 13.9641 13.9099 13.7941 14.2714C13.6241 14.6328 13.3637 14.963 13.0288 15.2421C12.6938 15.5211 12.2912 15.7433 11.8453 15.895C11.3993 16.0468 10.9193 16.1251 10.4343 16.1251C9.9493 16.1251 9.46931 16.0468 9.02338 15.895C8.57745 15.7433 8.17483 15.5211 7.83987 15.2421C7.50491 14.963 7.24456 14.6328 7.07456 14.2714C6.90457 13.9099 6.82845 13.5249 6.85081 13.1394C6.85081 13.5142 6.75803 13.8853 6.57775 14.2316C6.39747 14.5779 6.13323 14.8925 5.80011 15.1575C5.467 15.4225 5.07154 15.6328 4.6363 15.7762C4.20107 15.9196 3.73459 15.9935 3.26349 15.9935H3.11084V28.1383C3.11084 28.5168 3.29981 28.8798 3.63619 29.1474C3.97257 29.415 4.42879 29.5654 4.9045 29.5654H5.86621C6.25104 29.5623 6.61924 29.4401 6.89279 29.2247C7.16634 29.0094 7.32375 28.7177 7.33167 28.4116V20.9303C7.33154 20.6134 7.48712 20.309 7.7652 20.0821C8.04328 19.8552 8.42182 19.7238 8.82003 19.7159H12.934C13.3389 19.7159 13.7271 19.8438 14.0134 20.0716C14.2997 20.2993 14.4605 20.6082 14.4605 20.9303V28.4116C14.4605 28.7224 14.6157 29.0205 14.892 29.2403C15.1682 29.4601 15.5429 29.5836 15.9336 29.5836H30.3058C30.7815 29.5836 31.2377 29.4332 31.5741 29.1656C31.9105 28.898 32.0995 28.535 32.0995 28.1566V16.0117L31.9544 15.9935ZM28.2679 24.0819C28.2679 24.3767 28.1207 24.6593 27.8588 24.8677C27.5968 25.0761 27.2416 25.1932 26.8711 25.1932H20.3605C19.9907 25.1916 19.6366 25.074 19.3751 24.866C19.1136 24.6579 18.9658 24.3762 18.9638 24.0819V20.4871C18.9638 20.1923 19.1109 19.9097 19.3729 19.7013C19.6348 19.4929 19.9901 19.3758 20.3605 19.3758H26.8711C27.2416 19.3758 27.5968 19.4929 27.8588 19.7013C28.1207 19.9097 28.2679 20.1923 28.2679 20.4871V24.0819Z" fill="white"/>
</g>
<defs>
<clipPath id="clip0_5118_2163">
<rect width="33.3239" height="28.838" fill="white" transform="translate(0.944824 0.739502)"/>
</clipPath>
</defs>
</svg>
