<svg width="31" height="29" viewBox="0 0 31 29" fill="none" xmlns="http://www.w3.org/2000/svg">
<g clip-path="url(#clip0_5010_5460)">
<path d="M0.0114696 9.40312C0.309987 3.11214 6.35773 -0.868089 12.2065 1.61956C14.2961 2.50405 15.855 2.79151 18.022 1.67484C21.5268 -0.127323 26.1704 1.27681 28.6912 4.36149C31.002 7.19188 31.1015 11.6696 28.647 14.898C25.0648 19.608 20.5428 23.4334 16.3746 27.5795C15.5454 28.4087 14.7604 28.2539 13.9754 27.4911C9.89571 23.5108 5.61696 19.7185 2.0237 15.2629C0.420549 13.2728 -0.0880361 11.4817 0.0114696 9.40312ZM9.18811 3.15637C6.23611 3.17848 4.25705 4.39466 3.01875 6.87125C1.52617 9.87853 2.52123 12.5541 4.47817 14.7654C7.46335 18.1375 10.7249 21.2664 13.887 24.4727C14.7052 25.3019 15.5896 25.5673 16.4852 24.5501C17.2923 23.6435 17.8893 22.7479 16.5405 21.7971C16.3194 21.6423 16.0872 21.4433 15.9766 21.2001C15.7334 20.7136 15.4238 20.1719 15.8771 19.6633C16.3304 19.1547 16.8722 19.3537 17.3697 19.619C17.6129 19.7517 17.8009 19.9618 18.022 20.1276C19.6804 21.4654 19.6252 21.3991 20.9851 20.0502C21.9691 19.0773 21.7701 18.3476 20.8856 17.5073C20.2443 16.8992 19.7578 16.1032 20.576 15.3735C21.1841 14.8207 21.7258 15.5283 22.2455 15.871C22.3229 15.9263 22.3892 15.9816 22.4555 16.0479C23.4395 16.9987 24.2135 16.5896 25.0427 15.7604C25.9825 14.8096 25.4628 14.1241 24.7552 13.4386C24.0919 12.7974 23.4506 12.1229 22.7209 11.5922C21.0956 10.4092 20.3217 10.4424 18.8181 11.7691C17.6461 12.7974 16.5405 13.914 15.1585 14.6769C13.2347 15.7383 11.5099 15.4066 9.9731 13.6929C8.76798 12.3441 8.74586 10.1992 9.96205 8.61813C10.4043 8.03215 10.946 7.52356 11.4436 6.98181C13.5111 4.72635 13.301 4.00769 10.3601 3.31115C9.91782 3.20059 9.45346 3.17848 9.19917 3.14531L9.18811 3.15637ZM21.3278 3.18954C19.8021 3.23376 18.1547 3.83079 16.8058 4.9917C15.2027 6.36266 13.688 7.83314 12.2396 9.34784C11.1008 10.5309 11.0566 11.4485 11.8969 12.2003C12.9362 13.1291 13.9423 12.7089 14.871 12.0013C15.5896 11.4375 16.2088 10.7409 16.9385 10.1992C20.0453 7.92159 21.8364 7.97687 24.8216 10.3429C25.1754 10.6304 25.5181 10.9399 25.894 11.1942C27.2208 12.0898 27.851 11.7691 27.9836 10.1439C28.249 6.76069 25.0206 3.23376 21.3168 3.17848L21.3278 3.18954Z" fill="#111825"/>
</g>
<defs>
<clipPath id="clip0_5010_5460">
<rect width="30.4598" height="27.2646" fill="white" transform="translate(0 0.867676)"/>
</clipPath>
</defs>
</svg>
