<svg width="42" height="34" viewBox="0 0 42 34" fill="none" xmlns="http://www.w3.org/2000/svg">
<path d="M15.94 17.056H4.564V17.04C4.564 13.912 6.116 11.016 8.716 9.27999L15.852 4.51999C16.788 3.89599 17.036 2.63999 16.412 1.70399C16.02 1.11999 15.38 0.799988 14.716 0.799988C14.332 0.799988 13.94 0.911988 13.588 1.14399L6.452 5.90399C2.732 8.38399 0.5 12.552 0.5 17.04V32.496C0.5 32.944 0.86 33.312 1.316 33.312H15.94C16.388 33.312 16.756 32.952 16.756 32.496V17.872C16.756 17.416 16.396 17.056 15.94 17.056ZM40.324 17.056H28.948V17.04C28.948 13.912 30.5 11.016 33.1 9.27999L40.236 4.51999C41.172 3.89599 41.42 2.63999 40.796 1.70399C40.404 1.11999 39.764 0.799988 39.1 0.799988C38.716 0.799988 38.324 0.911988 37.972 1.14399L30.836 5.90399C27.1 8.39199 24.876 12.552 24.876 17.04V32.496C24.876 32.944 25.236 33.312 25.692 33.312H40.324C40.772 33.312 41.14 32.952 41.14 32.496V17.872C41.14 17.416 40.772 17.056 40.324 17.056Z" fill="#236924"/>
</svg>
